<?xml version="1.0" standalone="no"?><!DOCTYPE svg PUBLIC "-//W3C//DTD SVG 1.1//EN" "http://www.w3.org/Graphics/SVG/1.1/DTD/svg11.dtd"><svg t="1591665379377" class="icon" viewBox="0 0 1024 1024" version="1.1" xmlns="http://www.w3.org/2000/svg" p-id="2483" xmlns:xlink="http://www.w3.org/1999/xlink" width="200" height="200"><defs><style type="text/css"></style></defs><path d="M51.224381 965.632c-7.972571 2.169905 2.681905-23.210667 3.559619-25.86819 6.704762-20.23619 13.653333-40.399238 20.333714-60.65981 2.194286-6.607238 6.826667-15.969524 2.998857-22.844952-3.900952-6.972952-15.847619-8.899048-22.674285-11.166477-14.384762-4.754286-29.769143-7.899429-43.885715-13.287619-27.501714-10.50819 17.115429-29.379048 27.257905-33.938285a732.598857 732.598857 0 0 1 97.109334-36.522667 579.949714 579.949714 0 0 1 145.188571-24.30781l-37.741714 5.973334c13.848381-0.365714 40.96-9.581714 51.175619 2.755047a74.264381 74.264381 0 0 1 9.142857 19.992381c3.730286 9.191619 8.240762 18.041905 12.288 27.111619 4.681143 10.48381 9.118476 21.113905 13.019428 31.939048 1.657905 4.583619 9.728 20.577524 6.729143 24.405333-3.31581 4.242286-16.700952 5.534476-21.650285 6.924191-10.605714 2.950095-21.26019 5.802667-31.865905 8.825905-42.788571 12.190476-85.162667 25.697524-126.634667 41.886476a322.950095 322.950095 0 0 0-104.350476 58.782476zM985.35619 959.683048c7.996952 1.462857-3.31581-19.943619-4.656761-23.015619q-13.116952-29.988571-25.916953-60.14781c-2.681905-6.265905-8.313905-15.36-5.924571-22.454857 2.486857-7.387429 12.483048-10.044952 18.822095-12.8 9.069714-3.949714 18.236952-7.92381 27.452952-11.50781a136.192 136.192 0 0 0 20.821334-7.655619c20.333714-12.04419-23.698286-27.648-32.207238-30.963809a767.439238 767.439238 0 0 0-100.449524-32.109714 496.615619 496.615619 0 0 0-143.36-15.36l35.157333 10.435047c-12.04419 0.682667-36.668952-12.580571-46.567619-3.047619-8.338286 8.045714-10.166857 27.672381-14.165333 38.448762-3.803429 10.215619-6.826667 20.626286-10.24 30.96381a102.936381 102.936381 0 0 0-9.191619 34.450285c0.487619 7.484952 3.169524 6.485333 10.971428 8.43581 10.435048 2.584381 20.992 4.778667 31.500191 7.143619 45.348571 10.24 90.428952 21.723429 134.729143 35.888762a357.814857 357.814857 0 0 1 113.225142 53.296762z" fill="#98929D" p-id="2484"></path><path d="M719.701333 937.788952l-285.013333-1.316571-71.704381-0.341333c-14.165333-0.048762-39.545905 5.753905-49.907809-5.558858-14.799238-16.14019-27.452952-35.523048-41.081905-52.76038L227.791238 821.881905l-89.575619-113.371429-44.153905-55.905524c-6.339048-7.972571-13.04381-15.774476-19.139047-23.893333-6.89981-9.216-4.87619-14.896762-2.048-25.746286 23.79581-90.89219 42.837333-183.344762 64.170666-274.846476l16.335238-70.022095a102.521905 102.521905 0 0 1 6.144-25.916952c4.144762-7.119238 16.237714-10.24 23.405715-13.702096 41.984-20.138667 84.138667-39.936 126.195809-59.952762l128.975238-61.366857c21.065143-10.020571 41.886476-20.553143 62.951619-30.598095 7.484952-3.559619 17.16419-9.923048 25.6-7.972571a158.134857 158.134857 0 0 1 28.891429 14.165333l257.755429 125.561905c19.846095 9.679238 39.716571 19.358476 59.708952 28.720762a20.577524 20.577524 0 0 1 14.043428 18.578285c2.438095 12.01981 5.217524 23.966476 7.899429 35.961905l31.061333 139.044571 31.256381 139.800381 7.119238 31.939048a167.107048 167.107048 0 0 1 7.094858 29.305905c0.146286 6.582857-4.998095 11.264-9.191619 15.847619-7.070476 7.728762-13.604571 15.847619-20.163048 24.015238L762.392381 884.784762z" fill="#9B969F" p-id="2485"></path><path d="M704.170667 904.606476l-270.750477-0.999619-66.364952-0.243809c-6.826667-0.024381-13.58019 0.316952-20.382476 0.560762a16.920381 16.920381 0 0 1-18.139429-8.265143c-25.575619-32.743619-51.44381-65.29219-77.214476-97.889524l-85.406476-107.958857-37.473524-47.396572a200.94781 200.94781 0 0 1-19.139047-23.942095 35.328 35.328 0 0 1 0.560761-26.916571c21.894095-80.432762 39.424-162.157714 58.441143-243.321905l14.872381-63.463619a101.13219 101.13219 0 0 1 6.314667-26.86781 35.401143 35.401143 0 0 1 15.920762-10.630095c39.789714-19.894857 80.457143-38.009905 120.636952-57.124571l118.832762-56.539429c18.773333-8.94781 37.400381-18.212571 56.124952-27.257905a70.339048 70.339048 0 0 1 21.284572-9.118476c8.484571-0.633905 18.041905 6.704762 25.453714 10.313143l242.736762 117.906286c17.286095 8.387048 34.377143 17.505524 52.004572 25.112381 6.631619 2.852571 11.946667 4.266667 14.750476 11.507809a238.713905 238.713905 0 0 1 6.997333 32.49981l29.013333 130.243047 31.695238 142.140953c2.56 11.434667 4.949333 22.918095 7.65562 34.328381 1.828571 7.753143 5.046857 13.360762 0.755809 20.650666a154.428952 154.428952 0 0 1-14.921143 17.066667c-8.167619 9.947429-16.14019 20.016762-24.210286 30.037333z" fill="#FFFFF9" p-id="2486"></path><path d="M692.053333 879.055238l-253.318095-0.926476-59.562667-0.24381c-14.06781-0.024381-30.159238 4.632381-40.350476-6.899809-10.630095-12.01981-19.18781-26.745905-29.208381-39.399619l-38.619428-48.810667-78.287238-99.011047-37.936762-47.957334c-11.142095-14.09219-24.649143-24.478476-20.72381-43.52 3.535238-17.310476 9.45981-34.352762 13.507048-51.614476l13.897143-59.221333 28.355047-120.978286 13.824-59.050667c3.413333-14.457905 2.681905-27.940571 16.237715-35.425524 34.791619-19.260952 72.801524-34.255238 108.739047-51.346285l114.346667-54.418286a2330.087619 2330.087619 0 0 0 55.149714-26.989714 67.949714 67.949714 0 0 1 24.576-10.191238 64.219429 64.219429 0 0 1 24.112762 10.337523l229.132191 111.299048c14.994286 7.289905 31.012571 12.946286 45.763047 20.577524 16.993524 8.777143 16.481524 25.84381 20.309333 43.081143l27.209143 122.051047 30.476191 136.801524c2.755048 12.288 13.409524 32.231619 8.533333 44.665905-2.389333 6.168381-9.654857 11.434667-13.897143 16.457143-7.728762 9.191619-15.11619 18.724571-22.625524 28.062476z" fill="#9B969F" p-id="2487"></path><path d="M881.249524 883.590095l-100.498286-32.621714c-30.793143-9.99619-61.44-21.455238-92.988952-29.013333a326.314667 326.314667 0 0 0-94.744381-9.411048 525.409524 525.409524 0 0 1-99.815619 2.194286 435.126857 435.126857 0 0 0-190.268953 16.700952c-32.353524 10.118095-64.24381 21.74781-96.426666 32.49981-14.994286 5.022476-30.061714 9.874286-45.226667 14.336a60.464762 60.464762 0 0 1-41.886476 2.56c-47.299048-19.529143-33.962667-94.866286-3.510857-123.172572 23.30819-21.674667 55.271619-22.576762 85.187047-26.331428l97.718857-12.239238a1632.743619 1632.743619 0 0 1 205.263239-16.62781 1627.989333 1627.989333 0 0 1 203.215238 14.409143l113.834666 14.189714c30.768762 3.85219 64.365714 5.193143 88.380953 27.526095 35.669333 33.158095 42.25219 133.802667-28.233143 125.001143z" fill="#888889" p-id="2488"></path><path d="M567.588571 271.262476a44.153905 44.153905 0 0 1-49.347047 42.666667c-33.475048-4.217905-41.057524-38.253714-32.914286-65.926095 4.510476-15.36 19.334095-61.586286 41.252572-58.392381 13.336381 1.950476 22.918095 22.137905 28.135619 32.792381a113.517714 113.517714 0 0 1 12.897523 48.859428z" fill="#CECECE" p-id="2489"></path><path d="M541.744762 236.178286a22.381714 22.381714 0 0 1-27.233524 21.235809c-16.969143-3.998476-18.334476-21.820952-13.677714-35.644952 2.925714-8.679619 10.093714-30.329905 22.430476-26.063238 12.312381 4.266667 18.505143 29.42781 18.505143 40.472381z" fill="#EBEDED" p-id="2490"></path><path d="M329.923048 428.617143c-14.409143-1.414095-24.039619 7.899429-37.302858 10.093714-10.825143 1.77981-15.62819-6.851048-10.288761-16.091428a26.404571 26.404571 0 0 1 27.306666-10.99581c7.070476 1.511619 20.796952 8.167619 20.284953 16.993524z" fill="#CECECE" p-id="2491"></path><path d="M290.328381 427.76381c-4.437333-4.437333 3.31581-10.044952 6.680381-11.75162a17.65181 17.65181 0 0 1 20.845714 3.535239c-5.38819 0.560762-23.088762 12.629333-27.526095 8.216381z" fill="#EBEDED" p-id="2492"></path><path d="M355.05981 401.871238c4.217905-13.702095-2.82819-24.892952-2.486858-38.229333a9.825524 9.825524 0 0 1 16.676572-8.265143 26.282667 26.282667 0 0 1 6.509714 30.086095c-2.925714 6.582857-12.312381 18.627048-20.699428 16.408381z" fill="#CECECE" p-id="2493"></path><path d="M366.518857 385.365333c0.536381-5.583238-8.289524-31.134476 1.536-28.452571 12.775619 3.462095 5.851429 23.552-1.536 28.452571z" fill="#EBEDED" p-id="2494"></path><path d="M326.217143 409.916952c-2.438095-8.46019-10.654476-12.068571-14.116572-19.577904-3.242667-7.070476 1.26781-11.556571 8.752762-8.825905 8.874667 3.218286 18.017524 24.185905 5.36381 28.403809z" fill="#CECECE" p-id="2495"></path><path d="M327.41181 393.191619a86.016 86.016 0 0 0-9.069715-9.435429c5.36381-1.999238 9.435429 5.046857 9.069715 9.435429z" fill="#EBEDED" p-id="2496"></path><path d="M812.30019 568.466286c12.8-6.777905 15.774476-19.602286 25.404953-28.940191 7.606857-7.338667 16.432762-3.705905 17.627428 6.704762a26.331429 26.331429 0 0 1-17.627428 25.526857c-6.582857 2.31619-21.113905 4.047238-25.404953-3.291428z" fill="#CECECE" p-id="2497"></path><path d="M832.097524 564.882286c4.388571-3.657143 15.433143-26.331429 20.821333-20.065524 9.313524 10.800762-12.751238 21.699048-20.821333 20.065524zM786.236952 553.74019c2.462476-4.437333 2.194286-43.227429 15.481905-25.283047 5.948952 8.045714-3.657143 31.207619-15.481905 25.283047z" fill="#CECECE" p-id="2498"></path><path d="M798.890667 542.768762a86.406095 86.406095 0 0 0 0.243809-13.068191c5.241905 2.364952 3.120762 10.24-0.243809 13.068191zM653.141333 393.020952c9.48419-8.46019 20.772571-7.460571 31.695238-12.04419 8.43581-3.559619 11.361524-11.995429 2.56-17.554286a23.844571 23.844571 0 0 0-27.160381 4.681143c-5.022476 4.827429-12.458667 18.310095-7.094857 24.892952z" fill="#CECECE" p-id="2499"></path><path d="M682.300952 370.834286c0.926476-5.851429-8.289524-5.851429-11.873523-5.168762a16.335238 16.335238 0 0 0-13.190096 13.994666c4.510476-2.608762 24.088381-2.681905 25.063619-8.825904z" fill="#EBEDED" p-id="2500"></path><path d="M820.857905 651.142095c0 17.968762-29.696 25.404952-42.861715 29.379048a387.267048 387.267048 0 0 1-82.407619 13.214476 480.060952 480.060952 0 0 1-160.451047-10.776381c-15.11619-4.047238-39.497143-8.777143-48.615619-23.088762-12.629333-19.870476 19.894857-31.524571 33.475047-36.181333a447.975619 447.975619 0 0 1 163.718096-15.750095 408.502857 408.502857 0 0 1 92.550095 13.409523c14.019048 3.998476 44.592762 10.849524 44.592762 29.793524z" fill="#C6C9D8" p-id="2501"></path><path d="M778.727619 598.649905c0 26.282667-42.76419 37.156571-62.244571 43.081143a565.589333 565.589333 0 0 1-120.344381 19.675428 719.579429 719.579429 0 0 1-236.763429-14.872381c-23.576381-6.095238-62.317714-13.336381-75.971048-36.278857-16.700952-28.111238 28.818286-44.665905 48.006096-51.443809a486.936381 486.936381 0 0 1 118.637714-21.942858 917.504 917.504 0 0 1 130.096762-1.950476 589.531429 589.531429 0 0 1 134.997333 20.309334c20.406857 5.997714 63.585524 15.993905 63.585524 43.398095z" fill="#E5E5E5" p-id="2502"></path><path d="M495.85981 686.396952c0 17.895619-97.938286 17.895619-97.938286 0s97.938286-17.871238 97.938286 0z" fill="#BBBBBC" p-id="2503"></path><path d="M534.674286 698.563048c0 6.89981-34.913524 5.315048-34.182096 0 0.926476-6.680381 34.157714-5.851429 34.157715 0z" fill="#E5E5E5" p-id="2504"></path><path d="M591.555048 560.079238c8.825905-7.168 21.308952-20.72381 13.287619-32.670476-6.485333-9.679238-20.74819-8.484571-30.915048-8.728381a88.161524 88.161524 0 0 0 12.604952-37.863619c-0.609524-10.630095-9.411048-18.407619-4.973714-29.379048a57.61219 57.61219 0 0 1 47.981714-26.526476c21.845333-1.560381 39.448381 11.849143 24.551619 33.158095-7.192381 10.264381-16.920381 18.70019-24.868571 28.379429-6.168381 7.484952-15.969524 17.798095-16.067048 28.135619a61.074286 61.074286 0 0 1 42.154667-26.745905c10.556952-2.145524 31.841524-5.729524 39.228952 5.022476 7.119238 10.361905-9.606095 17.066667-16.944761 20.48a96.914286 96.914286 0 0 0-17.066667 10.337524c-7.314286 5.436952-16.213333 8.045714-23.405714 13.433905a66.755048 66.755048 0 0 1 25.404952-6.168381c9.435429 0.78019 14.019048 5.827048 7.875048 13.58019-10.288762 12.921905-34.620952 17.212952-40.326096 33.889524-1.29219 3.730286-1.755429 7.606857 2.096762 6.460953 0.585143-0.170667 0.658286-3.608381 2.316191-4.608 3.267048-1.926095 10.48381-0.195048 13.994666 0.292571 5.558857 0.75581 26.624 3.31581 27.648 11.142095 3.169524 24.015238-228.10819 13.55581-251.196952 11.264-12.483048-1.219048-24.795429-3.169524-37.156571-5.266285-5.241905-0.877714-13.726476-0.975238-17.700572-5.144381-11.068952-11.678476 18.602667-15.238095 24.868572-16.969143 0.146286 1.340952-0.438857 6.436571 1.731047 6.631619 6.217143-20.528762-13.409524-37.205333-29.013333-46.592-17.603048-10.630095-42.081524-13.433905-57.295238-27.574857-20.601905-19.18781 14.336-26.063238 27.501714-26.087619a92.306286 92.306286 0 0 1 60.830476 19.553523c6.777905-16.237714-21.187048-30.549333-31.573333-37.13219-15.36-9.752381-29.135238-29.476571-5.022476-39.082667a68.87619 68.87619 0 0 1 68.071619 16.969143 55.734857 55.734857 0 0 1 16.579047 27.916191c0.585143 2.56 1.901714 21.040762 5.680762 20.918857-1.365333-11.264-7.070476-23.82019 1.706667-33.475048a45.397333 45.397333 0 0 1 35.401143-10.898286c8.167619 0.536381 21.040762 2.82819 23.503238 12.214858 1.462857 5.607619-2.438095 10.142476-4.096 15.213714a38.64381 38.64381 0 0 0 0.170667 23.405714 57.880381 57.880381 0 0 0-42.422858 7.509334 19.529143 19.529143 0 0 0 6.046477 32.451047c-11.629714-14.872381-12.775619-30.47619 7.753143-37.13219a37.156571 37.156571 0 0 1 25.11238-0.24381c2.876952 1.389714 10.898286 12.873143 13.312 12.458667a39.643429 39.643429 0 0 1 6.095239-56.393143 41.447619 41.447619 0 0 1 47.177142-0.609524c22.79619 17.13981 6.095238 54.296381-7.070476 72.045714 10.093714-7.046095 27.672381-11.824762 36.254476 0.341334 7.801905 10.971429-3.193905 23.527619-9.825523 32.085333z" fill="#CECECE" p-id="2505"></path><path d="M548.668952 601.404952c-30.378667 0-60.708571-1.219048-91.038476-2.876952a276.309333 276.309333 0 0 1-81.408-10.435048c4.291048-1.316571 8.533333-2.779429 12.873143-3.925333-0.828952 4.681143 6.631619 6.656 9.97181 5.510095 4.388571-1.462857 5.36381-5.778286 5.924571-9.923047a42.642286 42.642286 0 0 0-10.337524-31.036953 130.218667 130.218667 0 0 0-61.19619-36.132571c-6.046476-2.048-21.650286-5.948952-22.235429-14.140953-0.609524-8.557714 12.751238-9.264762 18.602667-9.630476a141.55581 141.55581 0 0 1 28.184381 1.462857 82.480762 82.480762 0 0 1 42.544762 21.187048c10.971429-18.18819-1.950476-33.03619-17.066667-43.056762-8.704-5.729524-27.062857-13.116952-29.062095-24.868571-2.730667-16.042667 22.28419-15.725714 31.817143-14.311619a69.36381 69.36381 0 0 1 41.593904 20.309333 55.174095 55.174095 0 0 1 13.507048 24.917333c1.462857 6.339048-0.24381 17.066667 5.36381 21.601524 18.919619 15.335619 8.704-26.745905 9.874285-29.96419 4.729905-12.970667 28.281905-14.57981 39.862857-11.897905 7.606857 1.755429 10.288762 3.657143 8.825905 10.971428a69.558857 69.558857 0 0 0-4.632381 25.234286c-15.60381-0.26819-36.815238 1.706667-44.860952 17.383619a25.453714 25.453714 0 0 0 3.584 28.038095c5.753905 6.631619 9.825524 9.094095 15.36 2.145524 6.070857-7.582476-1.243429-7.143619-4.022857-14.531047-3.535238-9.411048 5.12-14.896762 13.165714-17.212953a22.966857 22.966857 0 0 1 23.405714 3.437715c2.438095 2.681905 2.852571 6.826667 6.241524 8.801523 4.388571 2.584381 10.313143 0.292571 14.921143-0.414476a93.598476 93.598476 0 0 1-11.751619-34.06019 30.549333 30.549333 0 0 1 22.381714-27.306667 32.963048 32.963048 0 0 1 32.621714 7.533714 32.743619 32.743619 0 0 1 2.779429 30.890667 77.726476 77.726476 0 0 1-7.143619 16.798476c-1.29219 2.243048-6.826667 8.289524-7.046095 10.776381-0.219429 2.535619 4.803048 8.216381 7.411809 8.972191 4.705524 1.365333 9.557333-4.315429 15.09181-4.364191 12.483048-0.073143 16.920381 6.631619 11.239619 17.017905-5.851429 10.727619-5.705143 10.48381 1.828571 21.016381 10.288762-8.387048 21.74781-21.942857 17.13981-36.278857A29.842286 29.842286 0 0 0 584.655238 512a80.749714 80.749714 0 0 0 8.192-27.648c0.707048-9.362286-4.729905-17.066667-4.754286-25.721905 0-15.750095 26.258286-25.161143 38.424381-27.062857 11.946667-1.877333 32.719238 0.341333 25.088 17.066667a218.940952 218.940952 0 0 1-28.403809 35.303619 140.263619 140.263619 0 0 0-13.897143 21.138286c-2.80381 5.656381-4.193524 7.826286 1.024 10.873904a8.899048 8.899048 0 0 0 11.53219-0.975238c6.997333-5.36381 10.264381-11.385905 19.017143-15.433143a77.116952 77.116952 0 0 1 36.766476-6.826666c2.462476 0.195048 12.04419 0.975238 12.434286 4.803047 0.487619 5.071238-15.189333 9.752381-18.407619 11.190857-8.533333 3.85219-14.872381 10.678857-23.088762 14.921143-5.851429 3.023238-14.677333 3.242667-14.189714 11.020191a8.143238 8.143238 0 0 0 8.216381 8.338285c2.511238-0.073143 5.436952-2.608762 7.850667-3.315809a32.938667 32.938667 0 0 1 15.652571-0.853333c-11.434667 15.530667-41.447619 21.333333-43.885714 43.154285-1.219048 11.288381 6.875429 10.776381 14.360381 7.484953 9.99619-4.388571 16.871619 0.146286 27.501714 2.413714a520.777143 520.777143 0 0 1-115.395048 9.508571z" fill="#BABABA" p-id="2506"></path><path d="M823.369143 641.121524c-13.092571-17.212952-26.477714-34.133333-38.424381-52.175238a34.694095 34.694095 0 0 0-40.618667-18.822096 266.605714 266.605714 0 0 0-59.196952 24.81981 77.628952 77.628952 0 0 0-25.307429 14.384762 128.219429 128.219429 0 0 0-14.09219 22.186667c-5.827048 9.508571-12.117333 18.773333-18.115048 28.184381-5.046857 7.899429-1.852952 9.947429 3.559619 17.261714a18.090667 18.090667 0 0 0 18.968381 9.703619c10.630095-0.414476 21.333333-0.195048 31.98781-0.195048h144.042666z" fill="#CCCCCC" p-id="2507"></path><path d="M823.369143 641.121524c-12.312381-16.213333-25.380571-32.085333-36.498286-49.152-9.581714-14.774857-18.041905-25.380571-37.302857-22.966857a162.425905 162.425905 0 0 0-56.124952 28.135619 178.44419 178.44419 0 0 0-26.819048 16.969143 142.628571 142.628571 0 0 0-17.286095 20.577523c-6.314667 8.021333-13.092571 15.676952-19.431619 23.649524-7.192381 9.020952-5.924571 9.020952 0.999619 17.895619a19.626667 19.626667 0 0 0 20.382476 10.435048c10.727619-0.390095 21.455238-0.195048 32.182857-0.195048h142.701714z" fill="#F0F0F0" p-id="2508"></path><path d="M671.695238 652.04419l29.744762-11.166476c-4.900571-11.166476-15.798857-16.505905-25.234286-23.332571-5.948952-4.266667-6.582857-5.12-12.092952-0.731429a114.590476 114.590476 0 0 0-16.457143 19.626667c-5.607619 7.119238-20.675048 18.529524-23.283809 27.062857-2.194286 7.192381 7.68 18.115048 13.921523 21.845333 9.947429 5.924571 26.624 1.145905 37.790477 1.145905 9.801143 0 19.577905-0.073143 29.379047 0 3.413333 0 9.752381 1.462857 12.288-1.365333a45.104762 45.104762 0 0 0-0.048762-26.35581c-2.438095-2.194286-13.604571-1.999238-16.457143-2.413714z" fill="#CCCCCC" p-id="2509"></path><path d="M812.056381 670.72c-20.406857-1.414095-41.008762-3.85219-61.44-3.779048-5.436952 0.024381-13.994667 1.462857-18.188191-2.974476-3.876571-4.144762-3.657143-12.848762-5.14438-17.944381a128.292571 128.292571 0 0 1-11.532191 18.212572 31.061333 31.061333 0 0 1-18.090667 7.216762c-19.529143 4.169143-38.838857 9.99619-58.172952 15.018666h186.684952z" fill="#7F8182" p-id="2510"></path><path d="M823.369143 641.121524c-8.240762-10.849524-16.091429-22.211048-24.868572-32.646095a35.986286 35.986286 0 0 0-21.211428-11.556572 72.484571 72.484571 0 0 0-32.085333-6.314667 155.136 155.136 0 0 0-32.792381 14.774858c11.410286 0.316952 23.771429-1.219048 35.011047 0.195047 11.166476 1.414095 15.945143 10.410667 22.723048 18.383238 18.090667 21.308952 37.376 41.691429 56.051809 62.512762z" fill="#CCCCCC" p-id="2511"></path><path d="M265.898667 491.641905c-5.461333 2.413714-14.06781 3.242667-18.285715 7.899428-4.803048 5.315048-3.608381 14.60419-3.876571 21.187048-0.877714 21.552762-4.315429 43.25181-6.656 64.707048 16.505905 0.902095 32.963048 2.681905 49.493333 2.925714a267.117714 267.117714 0 0 0 48.396191-6.485333 156.769524 156.769524 0 0 0-7.460572-32.816762c-4.705524-10.849524-11.995429-20.382476-17.237333-30.96381-3.949714-7.996952-6.704762-15.11619-15.164952-19.017143a196.559238 196.559238 0 0 0-29.208381-7.43619z" fill="#F0F0F0" p-id="2512"></path><path d="M280.064 514.413714l-33.718857-14.140952-9.264762 85.162667c16.505905 0.902095 32.963048 2.681905 49.493333 2.925714a267.117714 267.117714 0 0 0 48.396191-6.485333 137.849905 137.849905 0 0 0-11.459048-39.15581c-7.265524-13.750857-14.872381-27.306667-22.332952-40.96-4.827429 3.291429-10.654476 5.266286-13.287619 10.825143a57.319619 57.319619 0 0 0-1.852953 16.944762z" fill="#F0F0F0" p-id="2513"></path><path d="M291.108571 576.609524c2.31619 7.314286 0.487619 11.922286 8.94781 11.53219a307.516952 307.516952 0 0 0 34.913524-6.265904c-1.560381-7.875048-0.048762-23.600762-7.509334-28.696381-13.604571-9.313524-16.384 9.337905-19.139047 17.042285l-6.314667-12.385524z" fill="#D1D1D1" p-id="2514"></path><path d="M246.345143 500.272762l-9.264762 85.162667 57.831619 3.169523a78.06781 78.06781 0 0 1-19.309714-11.166476 49.005714 49.005714 0 0 1-8.118857-19.821714c-6.144-19.358476-14.09219-38.326857-21.138286-57.344z" fill="#B2B2B2" p-id="2515"></path><path d="M266.727619 587.971048c-3.779048-10.191238-6.460952-20.74819-10.118095-30.988191-2.413714-6.826667-6.095238-21.796571-14.384762-23.722667-12.507429-2.925714-34.03581 24.33219-38.278095 34.133334-4.778667 11.117714-20.431238 43.446857-5.948953 53.467428 5.753905 3.974095 22.25981 0.804571 28.940191 0.853334l40.472381 0.414476z" fill="#E4E5EA" p-id="2516"></path><path d="M266.727619 587.971048c-3.779048-10.191238-6.460952-20.74819-10.118095-30.988191-2.389333-6.729143-6.168381-21.942857-14.433524-23.82019-13.165714-2.950095-31.012571 29.769143-35.937524 39.009523-5.680762 10.556952-23.210667 38.326857-8.240762 48.688762 5.753905 3.974095 22.25981 0.78019 28.940191 0.853334l40.472381 0.414476z" fill="#F0F0F0" p-id="2517"></path><path d="M209.481143 595.626667c4.096-3.023238 10.361905-5.12 10.727619-10.947048 0.438857-6.753524-8.338286-13.921524-11.995429-18.773333a132.681143 132.681143 0 0 0-15.920762 41.593904c-0.292571 16.237714 12.55619 14.677333 24.697905 14.262858 10.118095-0.341333 10.191238-1.072762 10.532572-11.702858 0.438857-13.238857-7.387429-11.215238-18.041905-14.433523z" fill="#CCCCCC" p-id="2518"></path><path d="M262.217143 610.206476c-7.363048-1.097143-21.333333 0.195048-27.794286-4.412952-4.583619-3.291429-3.242667-9.240381-3.974095-14.506667a34.06019 34.06019 0 0 1-10.825143 18.919619 143.262476 143.262476 0 0 1-22.552381 11.215238l70.339048 0.731429z" fill="#7F8182" p-id="2519"></path><path d="M266.727619 587.971048c-4.388571-11.824762-4.998095-26.233905-16.237714-33.743238-12.8-8.582095-15.408762-2.121143-25.33181 6.387809 4.632381 0.316952 10.873905-1.29219 15.116191 1.048381 4.486095 2.486857 5.607619 9.45981 7.241143 13.945905 5.705143 15.823238 13.165714 31.110095 19.894857 46.518857z" fill="#CCCCCC" p-id="2520"></path><path d="M934.64381 861.305905c-53.467429-32.329143-126.293333-27.477333-186.270477-28.696381-72.704-1.511619-144.944762-10.678857-217.673143-11.385905-71.753143-0.731429-142.311619 9.752381-213.77219 12.897524-36.693333 1.609143-73.411048 1.170286-110.08 3.730286a250.09981 250.09981 0 0 0-91.038476 19.017142c-14.336 6.851048-16.14019-0.731429-16.140191-14.433523 0-18.383238-0.341333-36.815238 0.195048-55.222858a105.325714 105.325714 0 0 1 32.182857-79.457523 149.552762 149.552762 0 0 1 83.431619-26.038857c36.327619-5.168762 72.606476-10.581333 108.909714-15.872a1349.485714 1349.485714 0 0 1 215.332572-17.261715 1624.941714 1624.941714 0 0 1 216.600381 22.576762c38.570667 5.778286 78.140952 9.167238 116.321524 16.993524a82.578286 82.578286 0 0 1 60.952381 48.883809 191.146667 191.146667 0 0 1 10.898285 74.191239c0.024381 6.144 3.754667 58.319238-9.849904 50.078476z" fill="#98929D" p-id="2521"></path><path d="M237.470476 806.521905l-1.901714-15.798857a95.427048 95.427048 0 0 0 22.357333-0.195048c13.06819-1.584762 22.942476-6.168381 21.504-18.334476-1.462857-12.04419-11.312762-14.384762-28.013714-12.385524l-7.826286 0.950857-1.706666-14.067809 7.704381-0.926477c15.238095-1.852952 23.868952-7.314286 22.576761-17.895619-1.219048-9.99619-8.728381-12.483048-21.040761-10.995809a77.848381 77.848381 0 0 0-19.529143 5.290667l-1.804191-14.945524a79.725714 79.725714 0 0 1 21.577143-5.534476c21.894095-2.633143 36.254476 2.998857 38.668191 22.869333a21.601524 21.601524 0 0 1-14.165334 24.210286l0.121905 0.877714a22.089143 22.089143 0 0 1 22.308571 21.455238q3.535238 29.598476-37.64419 34.57219a121.417143 121.417143 0 0 1-23.186286 0.877715zM315.684571 758.418286c-3.559619-39.082667 11.215238-65.316571 51.492572-68.998096l1.267809 15.750096c-23.430095 2.29181-35.279238 14.555429-35.59619 31.646476l0.414476-0.024381a32.182857 32.182857 0 0 1 19.675429-8.582095 28.379429 28.379429 0 0 1 33.743238 29.574095 31.573333 31.573333 0 0 1-31.817143 37.766095c-19.69981 1.80419-36.327619-6.217143-39.180191-37.13219z m53.930667 1.072762c-1.170286-12.678095-8.143238-18.212571-18.627048-17.261715-13.872762 1.26781-18.285714 9.020952-17.359238 19.090286 1.26781 13.848381 7.753143 20.601905 19.431619 19.553524a17.16419 17.16419 0 0 0 16.554667-21.382095zM408.283429 789.016381l-0.828953-15.920762a78.506667 78.506667 0 0 0 20.601905 1.389714c14.628571-0.78019 24.624762-5.436952 23.893333-19.309714-0.658286-12.873143-8.240762-17.310476-25.795047-16.384a130.29181 130.29181 0 0 0-20.48 3.31581l4.096-54.491429 50.736762-2.681905 0.853333 15.774476-36.08381 1.926096-2.31619 23.283809a63.146667 63.146667 0 0 1 11.068952-1.462857c22.966857-1.219048 35.59619 7.777524 36.766476 29.257143 1.243429 23.405714-14.287238 34.620952-40.594285 36.059428a109.568 109.568 0 0 1-21.918476-0.731428zM572.586667 736.158476c-0.78019 39.18019-20.894476 50.322286-49.980953 49.737143l-29.257143-0.609524 2.048-101.473524 29.257143 0.609524c29.110857 0.585143 48.810667 9.48419 47.932953 51.736381z m-13.580191-0.292571c0.658286-32.451048-14.262857-39.619048-34.864762-40.057905l-15.798857-0.316952-1.609143 78.506666 15.798857 0.316953c21.211429 0.438857 35.84-7.875048 36.473905-38.448762zM650.727619 762.61181l-44.763429-3.413334-13.409523 29.330286-13.409524-1.024 46.08-98.255238 17.529905 1.316571 30.47619 104.131048-13.872762-1.048381z m-3.34019-11.995429L633.904762 702.19581l-1.731048-0.121905-20.967619 45.763047zM703.609905 754.44419l-29.598476-61.342476 15.11619 1.584762 22.430476 48.518095 0.853334 0.097524 31.841523-42.837333 14.409143 1.511619-41.935238 53.686857-4.583619 43.495619-13.092571-1.365333zM756.97981 801.596952l1.536-12.04419a100.010667 100.010667 0 0 0 29.305904 8.265143c15.09181 1.877333 23.478857-1.633524 25.063619-14.092191 1.560381-12.336762-2.389333-16.213333-20.699428-23.088762-19.968-7.533714-26.86781-13.55581-24.624762-31.402666 2.267429-18.285714 14.140952-25.916952 36.912762-23.064381a84.358095 84.358095 0 0 1 24.819809 6.802285l-1.511619 11.897905a81.091048 81.091048 0 0 0-24.576-7.216762c-14.09219-1.755429-21.113905 0.146286-22.747428 13.214477-1.194667 9.411048 0.853333 13.06819 18.480762 19.553523 21.820952 8.045714 29.208381 15.018667 26.721523 34.742857-2.462476 19.602286-16.067048 27.038476-39.253333 24.112762a109.958095 109.958095 0 0 1-29.427809-7.68z" fill="#FFFFFF" p-id="2522"></path></svg>