<?xml version="1.0" standalone="no"?><!DOCTYPE svg PUBLIC "-//W3C//DTD SVG 1.1//EN" "http://www.w3.org/Graphics/SVG/1.1/DTD/svg11.dtd"><svg t="1587896580923" class="icon" viewBox="0 0 1024 1024" version="1.1" xmlns="http://www.w3.org/2000/svg" p-id="21045" xmlns:xlink="http://www.w3.org/1999/xlink" width="200" height="200"><defs><style type="text/css"></style></defs><path d="M139.636364 0h744.727272a139.636364 139.636364 0 0 1 139.636364 139.636364v744.727272a139.636364 139.636364 0 0 1-139.636364 139.636364H139.636364a139.636364 139.636364 0 0 1-139.636364-139.636364V139.636364a139.636364 139.636364 0 0 1 139.636364-139.636364z m618.232242 687.010909a52.999758 52.999758 0 0 0-18.819879-26.251636 121.018182 121.018182 0 0 0-30.595879-16.492606 413.478788 413.478788 0 0 0-35.638303-11.434667 335.499636 335.499636 0 0 1-33.978181-11.108848c-11.636364-4.499394-20.728242-9.650424-27.229091-15.484122-6.500848-5.833697-11.201939-12.008727-14.118788-18.509575a56.738909 56.738909 0 0 1-5.042424-19.192243c-0.449939-6.283636 0-12.567273 1.349818-18.835394 1.784242-10.333091 5.15103-17.625212 10.084848-21.876363 4.933818-4.266667 11.201939-9.541818 18.819879-15.825455 3.599515-2.684121 6.62497-6.609455 9.091879-11.791515 2.466909-5.15103 4.809697-10.426182 7.059394-15.80994 2.234182-5.833697 4.251152-12.334545 6.050909-19.51806 2.684121-1.349818 5.15103-3.584 7.385212-6.733576 2.249697-2.684121 4.266667-6.609455 6.050909-11.776 1.799758-5.15103 3.149576-12.225939 4.033939-21.209212a95.26303 95.26303 0 0 0 1.024-16.818424 127.844848 127.844848 0 0 0-1.008484-11.450182 35.343515 35.343515 0 0 0-2.01697-8.067879 463.282424 463.282424 0 0 0-4.033939-49.136485 322.094545 322.094545 0 0 0-10.767516-45.443879 140.194909 140.194909 0 0 0-22.869333-44.078545c-4.468364-5.833697-8.626424-10.333091-12.427636-13.467151a32.690424 32.690424 0 0 0-11.434667-6.392243 41.394424 41.394424 0 0 0-11.776-1.691151h-12.76897a362.806303 362.806303 0 0 1-9.076363-9.417697 41.704727 41.704727 0 0 0-10.426182-8.067879c-4.033939-2.249697-9.309091-4.158061-15.80994-5.740606A175.941818 175.941818 0 0 0 513.768727 201.69697c-9.417697 0-19.269818 0.775758-29.587394 2.358303a137.991758 137.991758 0 0 0-30.595878 8.409212c-10.084848 4.033939-19.843879 9.774545-29.246061 17.159757a136.812606 136.812606 0 0 0-26.220606 27.927273 119.823515 119.823515 0 0 0-19.518061 41.068606c-4.033939 15.266909-6.950788 29.401212-8.73503 42.402909a415.123394 415.123394 0 0 0-2.699636 47.119515 35.669333 35.669333 0 0 0-3.351273 12.8c-0.899879 4.033939-1.008485 8.843636-0.341333 14.460122 0.667152 5.616485 2.125576 12.008727 4.375272 19.192242a136.533333 136.533333 0 0 0 6.050909 16.492606c1.799758 3.816727 3.366788 6.826667 4.701091 9.091879 1.799758 2.234182 3.149576 3.801212 4.03394 4.701091 1.799758 7.183515 3.816727 13.684364 6.050909 19.51806 2.249697 5.383758 4.608 10.658909 7.074909 15.825455 2.451394 5.166545 5.492364 9.091879 9.076363 11.791515 6.718061 5.818182 12.877576 11.434667 18.478546 16.818424 5.616485 5.383758 8.859152 13.001697 9.75903 22.884849 0.449939 6.733576 0.667152 12.784485 0.667152 18.168242 0 5.383758-1.008485 10.550303-3.025455 15.484122-2.01697 4.933818-5.368242 9.867636-10.084848 14.801454-4.701091 4.933818-11.326061 10.100364-19.828364 15.484121-10.767515 7.183515-23.427879 12.567273-38.012121 16.151273a431.941818 431.941818 0 0 0-41.673697 12.458667 119.575273 119.575273 0 0 0-34.971152 19.192242c-10.084848 8.067879-16.259879 19.735273-18.49406 34.986667-4.033939 26.934303-4.933818 48.810667-2.699637 65.629091 2.249697 16.833939 5.383758 26.825697 9.417697 29.944242 2.249697 2.265212 8.192 4.390788 17.826909 6.407758a829.579636 829.579636 0 0 0 80.368485 12.458666c16.570182 1.784242 33.28 3.366788 50.082909 4.701091 16.818424 1.349818 33.171394 2.482424 49.08994 3.366788 15.918545 0.899879 29.928727 1.349818 42.030545 1.349818s26.220606-0.341333 42.356364-1.008485c16.135758-0.667152 32.73697-1.799758 49.772606-3.366787a1314.598788 1314.598788 0 0 0 51.106909-5.725091 1053.913212 1053.913212 0 0 0 46.390303-7.059394c13.901576-2.482424 25.444848-5.166545 34.645333-8.067879 9.18497-2.932364 14.894545-5.957818 17.144243-9.091879 3.134061-4.499394 5.492364-11.108848 7.059394-19.859394 1.56703-8.750545 2.358303-18.059636 2.358303-27.927273 0-9.883152-0.682667-19.642182-2.01697-29.292606a180.286061 180.286061 0 0 0-4.716606-23.893333z m-215.862303-22.217697c-3.568485 7.183515-6.609455 12.908606-9.076364 17.175273a36.150303 36.150303 0 0 1-7.726545 9.75903c1.349818 4.483879 2.916848 10.550303 4.701091 18.168243 1.799758 7.633455 3.475394 15.484121 5.042424 23.552 1.56703 8.083394 3.025455 15.375515 4.375273 21.876363 1.349818 6.516364 2.01697 11.108848 2.01697 13.808485 0 2.234182-1.008485 5.042424-3.025455 8.409212-2.01697 3.366788-4.483879 6.516364-7.400727 9.417697a72.378182 72.378182 0 0 1-9.076364 7.757576c-3.134061 2.234182-5.818182 3.351273-8.067879 3.351273-2.234182 0-4.809697-1.117091-7.726545-3.366788a49.803636 49.803636 0 0 1-8.409212-8.409212 117.341091 117.341091 0 0 1-7.059394-9.759031c-2.01697-3.134061-3.025455-5.833697-3.025455-8.067878 0-3.599515 0.558545-8.874667 1.675637-15.825455a596.836848 596.836848 0 0 1 9.076363-45.102545c1.799758-7.400727 3.134061-13.125818 4.03394-17.159758a39.749818 39.749818 0 0 1-7.400728-11.108849 985.801697 985.801697 0 0 0-8.067878-16.492606 7.819636 7.819636 0 0 1-0.325819-7.400727c1.117091-2.699636 2.575515-5.166545 4.359758-7.400727 1.799758-2.699636 4.266667-5.616485 7.400727-8.750546h30.937212c3.134061 3.134061 5.833697 6.050909 8.067879 8.750546 2.234182 2.684121 3.925333 5.492364 5.042424 8.409212a10.007273 10.007273 0 0 1-0.341333 8.409212z" fill="#1AA5DD" p-id="21046"></path></svg>