<?xml version="1.0" standalone="no"?><!DOCTYPE svg PUBLIC "-//W3C//DTD SVG 1.1//EN" "http://www.w3.org/Graphics/SVG/1.1/DTD/svg11.dtd"><svg t="1587952977198" class="icon" viewBox="0 0 1024 1024" version="1.1" xmlns="http://www.w3.org/2000/svg" p-id="9294" xmlns:xlink="http://www.w3.org/1999/xlink" width="128" height="128"><defs><style type="text/css"></style></defs><path d="M410.2 641H63.5V65.1h896.4v407.1l64.1 68.4V1.5H0v702.3h397.7l12.5-62.8z m0 0" fill="" p-id="9295"></path><path d="M180.4 248.7c0 65.5 53.1 118.6 118.6 118.6s118.6-53.1 118.6-118.6S364.5 130.1 299 130.1s-118.6 53.1-118.6 118.6z m0 0M467.4 577.2H127.5v-73c0-57.9 47-104.9 104.9-104.9h130c57.9 0 104.9 47 104.9 104.9v73zM522 200.8h339.8v47.9H522v-47.9z m0 117.3h339.8V366H522v-47.9z m499.4 378.3c0-1.8-1.5-3.3-3.3-3.3l-89.1-3.7c-4.4-16.4-11.1-31.9-19.4-46.2l59.9-66c1.3-1.4 1.3-3.4 0-4.7l-31.8-33-31.7-29.6c-1.4-1.3-3.4-1.3-4.7 0l-65.1 60.9c-14.4-8.1-29.8-14.4-46.1-18.6l-4.9-89.1c0-1.8-1.5-3.3-3.4-3.3l-45.7-0.6-43.3 1.7c-1.8 0-3.3 1.5-3.3 3.4l-2.5 89.2c-14.6 4.2-28.6 10.1-41.6 17.4l-65.3-60.8c-1.3-1.4-3.4-1.4-4.7 0l-33.3 31.4-30.3 31.5c-1.4 1.3-1.4 3.4 0 4.7l60.1 65.9c-8.2 14.3-14.7 29.7-19.2 45.8l-89.1 3.7c-1.8 0-3.3 1.5-3.3 3.3l-1.1 45.7 1.1 43.5c0 1.8 1.5 3.3 3.3 3.3l89.1 3.6c4.4 16.4 11.1 31.9 19.4 46.2l-60 66c-1.3 1.4-1.3 3.4 0 4.7l30.1 31.3 33.4 31.2c1.4 1.3 3.4 1.3 4.7 0l65.1-60.9c14.4 8.1 29.9 14.4 46.2 18.6l4.8 89.1c0 1.8 1.5 3.3 3.4 3.3l43.5 0.6 45.7-1.7c1.8 0 3.3-1.5 3.3-3.4l2.5-89.1c14.7-4.2 28.6-10.2 41.6-17.4l65.2 60.8c1.3 1.4 3.4 1.4 4.7 0l31.7-29.6 31.7-33c1.4-1.3 1.4-3.4 0-4.7l-60.1-65.9c8.2-14.3 14.7-29.7 19.2-46l89.1-3.6c1.8 0 3.3-1.5 3.3-3.3l1.1-43.5-0.9-45.8zM740.8 843.6c-56.7 0-102.6-46-102.6-102.6 0-56.7 46-102.6 102.6-102.6 56.7 0 102.6 46 102.6 102.6 0.1 56.6-45.9 102.6-102.6 102.6z m0 0" fill="" p-id="9296"></path></svg>