<?xml version="1.0" standalone="no"?><!DOCTYPE svg PUBLIC "-//W3C//DTD SVG 1.1//EN" "http://www.w3.org/Graphics/SVG/1.1/DTD/svg11.dtd"><svg t="1557718853648" class="icon" style="" viewBox="0 0 1024 1024" version="1.1" xmlns="http://www.w3.org/2000/svg" p-id="567" xmlns:xlink="http://www.w3.org/1999/xlink" width="48" height="48"><defs><style type="text/css"></style></defs><path d="M645.026881 384.959328l-31.41481 0L613.612072 347.20016c0-59.248126-24.251824-115.017088-68.253023-156.97172-43.694214-41.647647-100.486459-64.67153-161.678825-64.67153s-119.007894 22.921555-162.702109 64.67153c-44.001199 42.05696-68.253023 97.723593-68.253023 156.97172l0 37.759169-30.289198 0c-32.131108 0-58.122514 25.991406-58.122514 58.122514l0 346.483861c0 32.131108 25.991406 58.122514 58.122514 58.122514l522.590986 0c32.131108 0 58.122514-25.991406 58.122514-58.122514L703.149395 443.081843C703.149395 410.950734 677.055661 384.959328 645.026881 384.959328zM207.675427 347.20016c0-44.001199 18.21445-85.648846 51.266513-117.165984 33.359049-31.824123 77.667233-49.424603 124.738283-49.424603s90.253622 17.60048 123.715 49.424603c33.052064 31.517138 51.266513 73.164785 51.266513 117.165984l0 37.759169-350.98631 0L207.675427 347.20016zM648.199061 789.565704c0 1.739582-1.432597 3.172179-3.172179 3.172179L122.435895 792.737883c-1.739582 0-3.172179-1.432597-3.172179-3.172179L119.263715 443.081843c0-1.739582 1.432597-3.172179 3.172179-3.172179l522.590986 0c1.739582 0 3.172179 1.432597 3.172179 3.172179L648.199061 789.565704z" p-id="568"></path><path d="M383.884881 526.786449c-51.061857 0-89.537324 39.294094-89.537324 90.048966 0 50.754872 38.475467 90.048966 89.537324 90.048966 51.061857 0 90.560608-39.294094 90.560608-90.048966C474.445488 566.080544 434.946737 526.786449 383.884881 526.786449zM383.884881 654.082942c-20.465674 0-36.121915-16.679524-36.121915-37.247527 0-20.568002 15.656241-36.224243 36.121915-36.224243 20.465674 0 36.121915 15.656241 36.121915 36.224243C420.006795 637.403418 404.350555 654.082942 383.884881 654.082942z" p-id="569"></path><path d="M856.437294 448.198261l-0.306985 0 0-12.177076c0-37.861497-10.232837-74.904367-29.675227-107.035475-18.930748-31.41481-45.740781-56.792245-77.462576-73.574098-13.405016-7.060658-30.084541-1.944239-37.145198 11.460777-7.060658 13.405016-1.944239 30.084541 11.460777 37.145198 22.921555 12.074748 42.261617 30.493854 56.075947 53.313081 14.223643 23.535525 21.795943 50.754872 21.795943 78.690517l0 12.177076-9.41421 0c-15.144599 0-27.526332 12.279404-27.526332 27.526332s12.279404 27.526332 27.526332 27.526332l64.773858 0c12.791046 0 23.637854 8.288598 23.637854 18.009793l0 229.317877c0 9.721195-10.846807 18.009793-23.637854 18.009793l-66.411112 0c-15.144599 0-27.526332 12.279404-27.526332 27.526332s12.279404 27.526332 27.526332 27.526332l66.411112 0c43.387229 0 78.588188-32.745078 78.588188-72.960128L935.127811 521.158389C935.025482 480.94334 899.824523 448.198261 856.437294 448.198261z" p-id="570"></path></svg>