<?xml version="1.0" standalone="no"?><!DOCTYPE svg PUBLIC "-//W3C//DTD SVG 1.1//EN" "http://www.w3.org/Graphics/SVG/1.1/DTD/svg11.dtd"><svg t="1587891833261" class="icon" viewBox="0 0 1024 1024" version="1.1" xmlns="http://www.w3.org/2000/svg" p-id="5590" xmlns:xlink="http://www.w3.org/1999/xlink" width="200" height="200"><defs><style type="text/css"></style></defs><path d="M984.520503 1022.756669a40.463099 40.463099 0 0 1-26.603619-11.263113l-153.478199-153.478199a498.703584 498.703584 0 0 1-317.177308 117.16563 487.550177 487.550177 0 0 1-344.292887-831.934485 484.95381 484.95381 0 0 1 679.900743-8.191355 35.233797 35.233797 0 0 1 11.263113 27.115579 36.78796 36.78796 0 0 1-38.396976 38.396976 35.215512 35.215512 0 0 1-26.603619-11.263113 414.687343 414.687343 0 0 0-282.382334-111.972896 411.579017 411.579017 0 0 0-290.500552 702.408685 408.744954 408.744954 0 0 0 290.591973 120.676211 423.079825 423.079825 0 0 0 293.645447-120.676211 415.473567 415.473567 0 0 0 91.055687-442.47944 20.807504 20.807504 0 0 1-4.095678-13.804627 37.373057 37.373057 0 0 1 73.137098-11.775073 480.327888 480.327888 0 0 1-82.882616 494.205653l153.478199 153.478199a37.080508 37.080508 0 0 1 0 53.719198 47.337986 47.337986 0 0 1-26.603619 9.727234" p-id="5591" fill=""></path><path d="M625.39907 581.758255l-8.703315-4.607637-156.037998-134.535691-82.882615 98.204838a35.215512 35.215512 0 0 1-30.717581 18.942508 29.126849 29.126849 0 0 1-6.655476-0.51196h-114.020735a36.806244 36.806244 0 0 1-38.396977-38.378692 36.78796 36.78796 0 0 1 38.396977-38.396976h96.668958l97.14435-113.545344a37.775311 37.775311 0 0 1 36.367422-18.412264 22.233678 22.233678 0 0 1 17.900305 5.631556l161.157594 139.655288 15.87075-15.852466a41.797851 41.797851 0 0 1 29.675378-11.244829h115.190928a37.080508 37.080508 0 0 1 27.627539 11.756789 39.036926 39.036926 0 0 1 10.239194 26.09166 36.78796 36.78796 0 0 1-38.396977 38.396976h-102.903896l-26.091659 26.091659a12.963551 12.963551 0 0 1-10.751154 7.679396 1.828427 1.828427 0 0 1-1.023919 0.511959 19.436184 19.436184 0 0 1-8.703315 2.559799z" p-id="5592" fill=""></path></svg>