<?xml version="1.0" encoding="utf-8"?>
<!-- Generator: Adobe Illustrator 22.1.0, SVG Export Plug-In . SVG Version: 6.00 Build 0)  -->
<svg version="1.1" id="图层_1" xmlns="http://www.w3.org/2000/svg" xmlns:xlink="http://www.w3.org/1999/xlink" x="0px" y="0px"
	 viewBox="0 0 200 200" style="enable-background:new 0 0 200 200;" xml:space="preserve">

<path class="st0" d="M182.3,106.2h-54.2c-2.8,0-5.2,2.3-5.2,5.2v58.7c0,2.8,2.3,5.2,5.2,5.2h54.2c2.8,0,5.2-2.3,5.2-5.2v-58.7
	C187.5,108.5,185.2,106.2,182.3,106.2z M131.1,167.3v-53.1h48.2v53.1H131.1z"/>
<path class="st0" d="M143.1,134.4h24.3c1.9,0,3.5-1.6,3.5-3.5s-1.6-3.5-3.5-3.5h-24.3c-1.9,0-3.5,1.6-3.5,3.5
	S141.1,134.4,143.1,134.4z M143.1,154.1h24.3c1.9,0,3.5-1.6,3.5-3.5s-1.6-3.5-3.5-3.5h-24.3c-1.9,0-3.5,1.6-3.5,3.5
	S141.1,154.1,143.1,154.1z M105.4,138.3c0-17.8,9.7-34.1,25.4-42.7c0.6-0.3,1.1-0.8,1.5-1.5c5.4-9.7,8.1-17.9,8.1-25.2
	c0-28.9-19.4-52.3-43.1-52.3C73.3,16.7,54,40.1,54,69c0,14.9,10.6,31.1,15.7,38.9c0.8,1.3,1.6,2.4,1.8,2.9c1.2,2.3,0.9,5.7,0.4,6.6
	c-0.9,0.9-5,2.7-8.6,3.8c-0.1,0-0.3,0.1-0.4,0.2l-30,13.3c-8.8,3.2-14.9,11.5-14.9,20.1v3.5c0,9.8,7.8,16.9,18.5,16.9h76.9
	c1.5,0,2.8-0.8,3.4-2.2c0.6-1.3,0.4-2.9-0.5-4C109.3,160.5,105.4,149.6,105.4,138.3L105.4,138.3z"/>
</svg>
