<?xml version="1.0" encoding="utf-8"?>
<!-- Generator: Adobe Illustrator 22.1.0, SVG Export Plug-In . SVG Version: 6.00 Build 0)  -->
<svg version="1.1" id="图层_1" xmlns="http://www.w3.org/2000/svg" xmlns:xlink="http://www.w3.org/1999/xlink" x="0px" y="0px"
	 viewBox="0 0 200 200" style="enable-background:new 0 0 200 200;" xml:space="preserve">
<style type="text/css">
</style>
<path class="st0" d="M183.4,80.9h-18.8c-1.6-5.6-3.8-11-6.6-16l13.3-13.3c3.5-3.5,3.5-9.1,0-12.6l-14.5-14.5
	c-3.5-3.5-9.1-3.5-12.6,0l-13.3,13.3c-5-2.8-10.3-5.1-16-6.6V12.4c0-4.9-4-8.9-8.9-8.9H85.6c-4.9,0-8.9,4-8.9,8.9v18.8
	c-5.6,1.6-11,3.8-16,6.6L47.4,24.6c-3.5-3.5-9.1-3.5-12.6,0L20.4,39c-3.5,3.5-3.5,9.1,0,12.6l13.3,13.3c-2.8,5-5.1,10.3-6.6,16H8.3
	c-4.9,0-8.9,4-8.9,8.9v20.4c0,4.9,4,8.9,8.9,8.9h18.8c1.6,5.6,3.8,11,6.6,16l-13.3,13.3c-3.5,3.5-3.5,9.1,0,12.6l14.5,14.5
	c3.5,3.5,9.1,3.5,12.6,0l13.3-13.3c5,2.8,10.3,5.1,16,6.6v18.8c0,4.9,4,8.9,8.9,8.9h20.4c4.9,0,8.9-4,8.9-8.9v-18.8
	c5.6-1.6,11-3.8,16-6.6l13.3,13.3c3.5,3.5,9.1,3.5,12.6,0l14.5-14.5c3.5-3.5,3.5-9.1,0-12.6L158,135.1c2.8-5,5.1-10.3,6.6-16h18.8
	c4.9,0,8.9-4,8.9-8.9V89.8C192.3,84.9,188.3,80.9,183.4,80.9L183.4,80.9z M95.8,139.1c-21.6,0-39.1-17.5-39.1-39.1
	s17.5-39.1,39.1-39.1s39.1,17.5,39.1,39.1S117.4,139.1,95.8,139.1z"/>
<path class="st0" d="M76.3,100c0,10.8,8.8,19.6,19.6,19.6s19.6-8.8,19.6-19.6l0,0c0-10.8-8.8-19.6-19.6-19.6S76.3,89.2,76.3,100z"/>
</svg>
