<?xml version="1.0" standalone="no"?><!DOCTYPE svg PUBLIC "-//W3C//DTD SVG 1.1//EN" "http://www.w3.org/Graphics/SVG/1.1/DTD/svg11.dtd"><svg t="1594966726404" class="icon" viewBox="0 0 1024 1024" version="1.1" xmlns="http://www.w3.org/2000/svg" p-id="4554" xmlns:xlink="http://www.w3.org/1999/xlink" width="200" height="200"><defs><style type="text/css"></style></defs><path d="M512.2 951.9c-242.7 0-440-197.4-440-440s197.4-440 440-440 440 197.4 440 440-197.4 440-440 440z m0 0" fill="#FFAA30" p-id="4555"></path><path d="M512.2 79.5c238.6 0 432.4 193.3 432.4 432.4 0 239.1-193.3 432.4-432.4 432.4-238.6 0-432.4-193.3-432.4-432.4 0-239.1 193.8-432.4 432.4-432.4m0-15.3c-246.7 0-447.7 200.9-447.7 447.7s200.9 447.7 447.7 447.7 447.7-200.9 447.7-447.7-201-447.7-447.7-447.7z m0 0" fill="#FFCA85" p-id="4556"></path><path d="M542.2 571.4c-4.1-0.5-7.6 1-10.7 3.6-2 2-4.1 4.1-6.6 7.1-4.1 4.6-8.1 9.7-12.2 10.7-4.1-1-8.1-6.1-12.7-11.2-2-2.5-4.6-5.1-6.6-7.1-3.1-2.5-6.6-4.1-10.7-3.6-89.5 6.6-158.7 36.6-186.2 80.9-3.1 5.6-58.5 105.3-52.9 198.4 73.8 58.5 167.4 93.6 268.6 93.6 101.7 0 194.8-35.1 268.6-93.6 5.6-95.1-52.4-197.4-53.4-198.9-26.5-43.3-95.7-73.3-185.2-79.9z m-3.6 264.5c0 1.5-0.5 3.6-1.5 4.6l-15.8 29c-2 3.6-5.6 5.6-9.7 5.6s-7.6-2-9.7-5.6l-15.8-29c-1-1.5-1-3.1-1.5-4.6L479 627.8c0-3.6 1.5-7.1 4.6-9.2l20.9-15.3c3.6-2.5 8.6-2.5 12.7 0l21.4 15.3c3.1 2 4.6 5.6 4.6 9.2l-4.6 208.1z m-29-282.3c83.4 0 151.6-68.2 151.6-151.6 0-83.4-68.2-151.6-151.6-151.6-83.4 0-151.6 68.2-151.6 151.6 0 83.4 68.2 151.6 151.6 151.6z m0 0" fill="#FFFFFF" p-id="4557"></path></svg>