<?xml version="1.0" standalone="no"?><!DOCTYPE svg PUBLIC "-//W3C//DTD SVG 1.1//EN" "http://www.w3.org/Graphics/SVG/1.1/DTD/svg11.dtd"><svg t="1587952521464" class="icon" viewBox="0 0 1024 1024" version="1.1" xmlns="http://www.w3.org/2000/svg" p-id="6400" width="128" height="128" xmlns:xlink="http://www.w3.org/1999/xlink"><defs><style type="text/css"></style></defs><path d="M415.744 845.312H338.432c-7.168 0-12.8 5.632-12.8 12.8s5.632 12.8 12.8 12.8h77.312c7.168 0 12.8-5.632 12.8-12.8s-6.144-12.8-12.8-12.8zM694.272 845.312h-77.312c-7.168 0-12.8 5.632-12.8 12.8s5.632 12.8 12.8 12.8h77.312c7.168 0 12.8-5.632 12.8-12.8s-5.632-12.8-12.8-12.8zM555.008 845.312H477.696c-7.168 0-12.8 5.632-12.8 12.8s5.632 12.8 12.8 12.8h77.312c7.168 0 12.8-5.632 12.8-12.8s-6.144-12.8-12.8-12.8z" fill="" p-id="6401"></path><path d="M584.704 328.704h-55.296V273.92c0-7.168-5.632-12.8-12.8-12.8s-13.312 5.632-13.312 12.8v54.784H448c-7.168 0-12.8 5.632-12.8 12.8s5.632 12.8 12.8 12.8h55.296v54.784c0 7.168 5.632 12.8 12.8 12.8s12.8-5.632 12.8-12.8V354.304h55.296c7.168 0 12.8-5.632 12.8-12.8s-5.632-12.8-12.288-12.8z" fill="" p-id="6402"></path><path d="M726.016 164.352h-52.736v-15.36c0-1.024-1.024-1.536-1.024-2.56 0-1.024 0.512-2.048 0-2.56C644.608 80.384 581.632 39.424 512 39.424s-132.608 40.96-160.768 104.448c-0.512 1.024 0 1.536 0 2.56 0 1.024-1.024 1.536-1.024 2.56v15.36H297.984c-22.528 0-40.96 17.92-40.96 40.448v766.464c0 7.168 5.632 12.8 12.8 12.8s12.8-5.632 12.8-12.8V204.8c0-8.192 6.656-14.848 15.36-14.848H363.52c7.168 0 12.8-5.632 12.8-12.8v-25.088c24.064-52.736 77.312-87.04 136.192-87.04s111.616 34.304 136.192 87.04v25.088c0 7.168 5.632 12.8 12.8 12.8h65.536c8.192 0 15.36 6.656 15.36 14.848v766.464c0 7.168 5.632 12.8 12.8 12.8s12.8-5.632 12.8-12.8V204.8a42.5984 42.5984 0 0 0-41.984-40.448z" fill="" p-id="6403"></path><path d="M338.432 606.72h77.312c7.168 0 12.8-5.632 12.8-12.8s-5.632-12.8-12.8-12.8H338.432c-7.168 0-12.8 5.632-12.8 12.8s5.632 12.8 12.8 12.8zM616.96 606.72h77.312c7.168 0 12.8-5.632 12.8-12.8s-5.632-12.8-12.8-12.8h-77.312c-7.168 0-12.8 5.632-12.8 12.8s5.632 12.8 12.8 12.8zM477.696 606.72h77.312c7.168 0 12.8-5.632 12.8-12.8s-5.632-12.8-12.8-12.8H477.696c-7.168 0-12.8 5.632-12.8 12.8s5.632 12.8 12.8 12.8zM338.432 694.784h77.312c7.168 0 12.8-5.632 12.8-12.8s-5.632-12.8-12.8-12.8H338.432c-7.168 0-12.8 5.632-12.8 12.8s5.632 12.8 12.8 12.8zM616.96 694.784h77.312c7.168 0 12.8-5.632 12.8-12.8s-5.632-12.8-12.8-12.8h-77.312c-7.168 0-12.8 5.632-12.8 12.8s5.632 12.8 12.8 12.8zM477.696 694.784h77.312c7.168 0 12.8-5.632 12.8-12.8s-5.632-12.8-12.8-12.8H477.696c-7.168 0-12.8 5.632-12.8 12.8s5.632 12.8 12.8 12.8zM338.432 782.848h77.312c7.168 0 12.8-5.632 12.8-12.8s-5.632-12.8-12.8-12.8H338.432c-7.168 0-12.8 5.632-12.8 12.8s5.632 12.8 12.8 12.8zM616.96 782.848h77.312c7.168 0 12.8-5.632 12.8-12.8s-5.632-12.8-12.8-12.8h-77.312c-7.168 0-12.8 5.632-12.8 12.8s5.632 12.8 12.8 12.8zM477.696 782.848h77.312c7.168 0 12.8-5.632 12.8-12.8s-5.632-12.8-12.8-12.8H477.696c-7.168 0-12.8 5.632-12.8 12.8s5.632 12.8 12.8 12.8zM199.168 511.488H121.856c-7.168 0-12.8 5.632-12.8 12.8s5.632 12.8 12.8 12.8h77.312c7.168 0 12.8-5.632 12.8-12.8s-5.632-12.8-12.8-12.8zM199.168 599.552H121.856c-7.168 0-12.8 5.632-12.8 12.8s5.632 12.8 12.8 12.8h77.312c7.168 0 12.8-5.632 12.8-12.8s-5.632-12.8-12.8-12.8zM199.168 687.616H121.856c-7.168 0-12.8 5.632-12.8 12.8s5.632 12.8 12.8 12.8h77.312c7.168 0 12.8-5.632 12.8-12.8s-5.632-12.8-12.8-12.8zM199.168 775.68H121.856c-7.168 0-12.8 5.632-12.8 12.8s5.632 12.8 12.8 12.8h77.312c7.168 0 12.8-5.632 12.8-12.8s-5.632-12.8-12.8-12.8zM824.832 537.088h77.312c7.168 0 12.8-5.632 12.8-12.8s-5.632-12.8-12.8-12.8h-77.312c-7.168 0-12.8 5.632-12.8 12.8s5.632 12.8 12.8 12.8zM824.832 625.152h77.312c7.168 0 12.8-5.632 12.8-12.8s-5.632-12.8-12.8-12.8h-77.312c-7.168 0-12.8 5.632-12.8 12.8s5.632 12.8 12.8 12.8zM824.832 713.216h77.312c7.168 0 12.8-5.632 12.8-12.8s-5.632-12.8-12.8-12.8h-77.312c-7.168 0-12.8 5.632-12.8 12.8s5.632 12.8 12.8 12.8zM824.832 801.28h77.312c7.168 0 12.8-5.632 12.8-12.8s-5.632-12.8-12.8-12.8h-77.312c-7.168 0-12.8 5.632-12.8 12.8s5.632 12.8 12.8 12.8z" fill="" p-id="6404"></path><path d="M944.64 287.744h-178.176v25.6h178.176c8.192 0 15.36 6.656 15.36 14.848v617.472c0 7.168-6.144 13.312-13.312 13.312H77.312c-7.168 0-13.312-6.144-13.312-13.312V328.192c0-8.192 6.656-14.848 15.36-14.848h178.176v-25.6H79.36c-22.528 0-40.96 17.92-40.96 40.448v617.472c0 21.504 17.408 38.912 38.912 38.912h869.376c21.504 0 38.912-17.408 38.912-38.912V328.192c0-22.528-18.432-40.448-40.96-40.448z" fill="" p-id="6405"></path></svg>