<?xml version="1.0" encoding="utf-8"?>
<!-- Generator: Adobe Illustrator 22.1.0, SVG Export Plug-In . SVG Version: 6.00 Build 0)  -->
<svg version="1.1" id="图层_1" xmlns="http://www.w3.org/2000/svg" xmlns:xlink="http://www.w3.org/1999/xlink" x="0px" y="0px"
	 viewBox="0 0 200 200" style="enable-background:new 0 0 200 200;" xml:space="preserve">
<style type="text/css">
	
</style>
<path class="st0" d="M86.2,165.7h27.5v23.8H86.2V165.7z"/>
<path class="st0" d="M133.5,43H66.7c-6,0-11.1,4.9-11.1,10.9l0,0v135.6H78v-24.4c0-4.2,3.5-7.6,7.6-7.6h28.7c4.2,0,7.6,3.5,7.6,7.6
	v24.4h22.4V53.9C144.4,47.9,139.5,43,133.5,43L133.5,43z M125.6,128.1H74.4c-2.2,0.2-4.4-1.5-4.5-3.6s1.5-4.4,3.6-4.5
	c0.4,0,0.5,0,0.9,0h51.5c2.2-0.2,4.4,1.5,4.5,3.6c0.2,2.2-1.5,4.4-3.6,4.5C126.2,128.1,126,128.1,125.6,128.1z M125.6,105.5H74.4
	c-2.4,0-4.2-1.8-4.2-4.2c0-2.4,1.8-4.2,4.2-4.2l0,0h51.5c2.4,0,4.2,1.8,4.2,4.2C129.8,103.7,128,105.5,125.6,105.5z M125.6,84.1
	H74.4c-2.2,0.2-4.4-1.5-4.5-3.6c-0.2-2.2,1.5-4.4,3.6-4.5c0.4,0,0.5,0,0.9,0h51.5c2.2-0.2,4.4,1.5,4.5,3.6c0.2,2.2-1.5,4.4-3.6,4.5
	C126.2,84.1,126,84.1,125.6,84.1z M90.2,29.5h5.1v5.1c0,2.7,2.2,4.9,4.7,4.9c2.7,0,4.9-2.2,4.9-4.7l0,0v-5.1h5.1
	c2.7,0,4.9-2.2,4.9-4.7c0-2.7-2.2-4.9-4.7-4.9l0,0h-5.1V15c0-2.7-2.2-4.7-4.9-4.7s-4.7,2.2-4.7,4.7v5.1h-5.1c-2.7,0-4.7,2.2-4.7,4.9
	C85.3,27.4,87.5,29.5,90.2,29.5z M189.1,76.1h-37.3v113.6H200V87C200,81,195.1,76.1,189.1,76.1L189.1,76.1L189.1,76.1z M0,87v102.5
	h48.2V75.9H10.9C4.9,75.9,0,80.8,0,87C0,86.8,0,87,0,87z"/>
</svg>
