<?xml version="1.0" standalone="no"?><!DOCTYPE svg PUBLIC "-//W3C//DTD SVG 1.1//EN" "http://www.w3.org/Graphics/SVG/1.1/DTD/svg11.dtd"><svg t="1587951743834" class="icon" viewBox="0 0 1024 1024" version="1.1" xmlns="http://www.w3.org/2000/svg" p-id="1606" xmlns:xlink="http://www.w3.org/1999/xlink" width="128" height="128"><defs><style type="text/css"></style></defs><path d="M554.832 1004.656H40.688c-10.56 0-19.152-8.56-19.152-19.168V38.48c0-10.592 8.592-19.136 19.152-19.136h514.128c10.528 0 19.136 8.56 19.136 19.136v947.008a19.136 19.136 0 0 1-19.12 19.168zM59.84 966.368h475.84V57.632H59.84v908.736z m923.472 38.288h-428.48c-10.56 0-19.152-8.56-19.152-19.168V296.768c0-10.576 8.592-19.152 19.152-19.152h428.48c10.56 0 19.152 8.576 19.152 19.152v688.704c0 10.624-8.592 19.184-19.152 19.184z m-409.344-38.288H964.16V315.92H573.968v650.448z m-381.024-755.68h38.288v430.448h-38.288V210.688z m171.344 0h38.288v430.448h-38.288V210.688z m490.56 793.968H683.456a19.136 19.136 0 0 1-19.136-19.168V813.36c0-10.576 8.56-19.136 19.136-19.136h171.392c10.528 0 19.136 8.56 19.136 19.136v172.128c0 10.608-8.608 19.168-19.136 19.168z m-152.288-38.288h133.12v-133.872h-133.12v133.872z m-319.136 38.288H212.096c-10.56 0-19.152-8.56-19.152-19.168V813.36c0-10.576 8.592-19.136 19.152-19.136h171.328c10.544 0 19.136 8.56 19.136 19.136v172.128c0 10.608-8.592 19.168-19.136 19.168z m-152.192-38.288h133.04v-133.872h-133.04v133.872z m452.224-344.368h171.392v38.288H683.456v-38.288z m0-172.144h171.392v38.288H683.456v-38.288z" p-id="1607"></path><path d="M983.312 1020.096H40.688a34.64 34.64 0 0 1-34.576-34.608V38.48c0-19.056 15.504-34.576 34.576-34.576h514.128c19.056 0 34.56 15.504 34.56 34.576v223.712h393.92c19.056 0 34.56 15.52 34.56 34.576v688.704a34.608 34.608 0 0 1-34.544 34.624z m-94.112-30.88h94.112a3.696 3.696 0 0 0 3.712-3.728V296.768a3.712 3.712 0 0 0-3.712-3.712h-393.92v7.44h390.192v681.312h-90.176v3.68c0 1.264-0.064 2.528-0.208 3.728z m-209.472-7.424v3.68c0 2.096 1.664 3.728 3.712 3.728h171.392a3.712 3.712 0 0 0 3.712-3.728v-3.68H679.728z m-90.544 7.424h59.872a40.352 40.352 0 0 1-0.192-3.728v-3.68h-59.488v3.68c0.016 1.264-0.048 2.528-0.192 3.728z m-38.112-22.848v19.104c0 4.144 7.456 4.144 7.456 0V293.056h-3.696a3.728 3.728 0 0 0-3.744 3.712h-30.832V73.04H75.264v877.888h102.256v-137.584c0-19.072 15.504-34.576 34.576-34.576h171.328c19.056 0 34.576 15.504 34.576 34.576v137.584h102.256V296.768h30.832v669.6z m-133.28 22.848h102.656a31.568 31.568 0 0 1-0.208-3.728v-3.68h-102.256v3.68c0.016 1.264-0.064 2.528-0.192 3.728z m-209.424-7.424v3.68c0 2.096 1.664 3.728 3.712 3.728h171.328a3.712 3.712 0 0 0 3.712-3.728v-3.68H208.368zM40.688 34.752a3.712 3.712 0 0 0-3.712 3.712v947.008c0 2.096 1.664 3.728 3.712 3.728h137.024a31.568 31.568 0 0 1-0.208-3.728v-3.68H44.416V42.192h506.672v220.192c1.248-0.128 2.496-0.192 3.744-0.192h3.696V38.48a3.712 3.712 0 0 0-3.696-3.712H40.688z m848.72 916.192h59.312V331.344H589.392v619.6h59.488v-137.584c0-19.072 15.52-34.576 34.576-34.576h171.392c19.056 0 34.56 15.504 34.56 34.576v137.584z m-38.288 0h7.44v-137.584a3.728 3.728 0 0 0-3.712-3.712H683.456a3.712 3.712 0 0 0-3.712 3.712v137.584h7.408v-133.84h163.984v133.84z m-133.12 0h102.288v-103.008h-102.288v103.008z m-338.304 0h7.44v-137.584a3.728 3.728 0 0 0-3.712-3.712H212.096a3.712 3.712 0 0 0-3.712 3.712v137.584h7.44v-133.84h163.888v133.84z m-133.024 0h102.176v-103.008h-102.176v103.008zM870.288 675.68H668.016v-69.088h202.272v69.088zM698.88 644.848h140.528v-7.392H698.88v7.392z m-280.88 11.696h-69.152v-461.28h69.152v461.28z m-38.304-30.848h7.44V226.128h-7.44v399.568z m-133.024 30.848h-69.136v-461.28h69.136v461.28z m-38.304-30.848h7.44V226.128h-7.44v399.568z m661.92-122.128H668.016v-69.136h202.272v69.136zM698.88 472.704h140.528v-7.424H698.88v7.424z" p-id="1608"></path></svg>