<?xml version="1.0" encoding="utf-8"?>
<!-- Generator: Adobe Illustrator 22.1.0, SVG Export Plug-In . SVG Version: 6.00 Build 0)  -->
<svg version="1.1" id="图层_1" xmlns="http://www.w3.org/2000/svg" xmlns:xlink="http://www.w3.org/1999/xlink" x="0px" y="0px"
	 viewBox="0 0 210.4 200" style="enable-background:new 0 0 210.4 200;" xml:space="preserve">
<style type="text/css">
	.st0{fill:#666666;}
</style>
<path class="st0" d="M21.5,184C9.6,183.9,0,174.3,0,162.5V34.8c0-11.9,9.6-21.5,21.5-21.5h18.4V5.6c0-3.1,2.5-5.6,5.6-5.6
	s5.6,2.5,5.6,5.6v7.7h81.8V5.6c0-3.1,2.5-5.6,5.6-5.6c3.1,0,5.6,2.5,5.6,5.6v7.7h18.4c11.9,0,21.5,9.6,21.5,21.5v42.9H11.2v84.8
	c0,5.7,4.6,10.3,10.3,10.3h70.9c3.1,0,5.6,2.5,5.6,5.5c0,1.5-0.6,2.9-1.6,3.9c-1.1,1.1-2.6,1.7-4.1,1.8L21.5,184L21.5,184z
	 M38.8,150.7c-3.1,0-5.6-2.5-5.6-5.6c0-3.1,2.5-5.6,5.6-5.6H72c3.1,0,5.6,2.5,5.6,5.6c0,3.1-2.5,5.6-5.6,5.6L38.8,150.7L38.8,150.7z
	 M38.8,110.9c-3.1,0-5.6-2.5-5.6-5.6c0-3.1,2.5-5.6,5.6-5.6H72c3.1,0,5.6,2.5,5.6,5.6s-2.5,5.6-5.6,5.6H38.8L38.8,110.9z"/>
<path class="st0" d="M158.4,197.2c-13.8,0-27.1-5.5-36.8-15.3c-9.8-9.7-15.3-23-15.3-36.8c0-13.9,5.4-27,15.3-36.8
	c9.7-9.8,23-15.3,36.8-15.3c13.9,0,27,5.4,36.8,15.3c9.8,9.7,15.3,23,15.3,36.8c0,13.9-5.4,27-15.3,36.8
	C185.5,191.8,172.2,197.3,158.4,197.2z M152.8,150.7L152.8,150.7l25.5,0c3.1,0,5.6-2.5,5.6-5.6c0-3.1-2.5-5.6-5.6-5.6H164v-14.3
	c0-3.1-2.5-5.6-5.6-5.6c-3.1,0-5.6,2.5-5.6,5.6V150.7L152.8,150.7z"/>
</svg>
