<?xml version="1.0" standalone="no"?><!DOCTYPE svg PUBLIC "-//W3C//DTD SVG 1.1//EN" "http://www.w3.org/Graphics/SVG/1.1/DTD/svg11.dtd"><svg t="1581557749029" class="icon" viewBox="0 0 1128 1024" version="1.1" xmlns="http://www.w3.org/2000/svg" p-id="2529" xmlns:xlink="http://www.w3.org/1999/xlink" width="141" height="128"><defs><style type="text/css"></style></defs><path d="M536.911956 603.026957a79.160872 79.160872 0 0 1-10.239923-32.705059 117.090381 117.090381 0 0 1 0-44.094361c88.084233-67.708876 135.041593-174.998189 124.550896-284.607157C651.222929 153.557045 599.250097 0 443.373397 0h-10.407105c-123.08805 7.836676-216.375836 112.492865-208.413773 233.741908v0.208978c0.167182 2.591327 0.417956 5.140859 0.710525 7.711289a343.392672 343.392672 0 0 0 119.514526 284.586259c10.887755 14.126914 16.383876 31.513884 15.506169 49.193425a47.897761 47.897761 0 0 1-20.730619 27.689587C273.056316 657.423934 34.048161 716.794587 18.479299 838.607872c-10.407105 49.151629-83.047863 131.07101 155.876701 164.883653 90.738254 13.917936 182.458704 20.772415 274.367234 20.500743 549.67487 0 435.384794-114.72893 415.65727-181.246632-15.715147-126.055538-255.789089-185.426192-327.468548-239.718679z m580.896185 186.324797c-10.407105-102.399227-197.379734-142.314027-249.394362-191.486554a59.684121 59.684121 0 0 1-10.407105-27.585098 54.794035 54.794035 0 0 1 5.287144-32.767753 263.521275 263.521275 0 0 0 94.520756-230.356464c5.976771-99.431739-70.634569-184.945542-171.508256-191.486554a124.070247 124.070247 0 0 0-67.499899 16.425672c25.913274 102.399227 62.317244 274.346337-77.927901 389.03347-51.972832 81.919381 124.592692 137.194066 98.742111 120.789292 161.059355 76.820318 207.724146 137.235862 218.173047 197.651406 10.407105 60.373748 10.407105 81.919381 10.407105 81.919381a753.783696 753.783696 0 0 0 160.014465-45.05566 261.347904 261.347904 0 0 0-10.407105-87.081138z" p-id="2530" fill="#e6e6e6"></path></svg>