<?xml version="1.0" standalone="no"?>
<!DOCTYPE svg PUBLIC "-//W3C//DTD SVG 1.1//EN" "http://www.w3.org/Graphics/SVG/1.1/DTD/svg11.dtd">
<svg t="1564030971468" class="icon" viewBox="0 0 1092 1024" version="1.1" xmlns="http://www.w3.org/2000/svg" p-id="2764" xmlns:xlink="http://www.w3.org/1999/xlink" width="68.25" height="64"><defs><style type="text/css"></style></defs><path d="M898.736587 204.803004a178.619078 178.619078 0 0 1 124.244878 50.517148 167.184454 167.184454 0 0 1 50.687814 120.831557v477.864914c0 93.62739-78.233313 169.607911-174.966825 169.983377H174.941908a178.584945 178.584945 0 0 1-124.48381-50.756081A167.15032 167.15032 0 0 1 0.009216 851.968631v-477.864915C0.384681 280.749392 78.515595 205.178469 174.941908 204.803004h172.850566L282.188448 46.424918a33.177478 33.177478 0 0 1 3.481587-31.129486c6.314644-9.215966 16.827672-14.916212 28.262297-15.291677h141.072549a33.791876 33.791876 0 0 1 31.061219 21.162589l54.988599 136.532832 55.022731-136.532832c5.52958-12.970619 18.670865-21.367388 33.177479-21.162589h141.072549c11.537024 0.136533 22.288985 5.734379 28.774295 15.018611 6.48531 9.215966 7.850638 20.991923 3.686386 31.402552L737.866777 204.803004h160.835677z m-244.803369-136.532833l-55.739529 136.532833h64.204565l56.422193-136.532833h-64.887229z m-222.207185 0h-64.887229c7.031441 17.066604 107.929204 262.143039 112.161722 273.065665h64.887229c-6.348777-15.701276-105.812945-257.36439-112.161722-273.065665z m443.731706 546.131331c19.455929 0 35.259604 15.291677 35.259604 34.133208-0.375465 18.704998-15.974341 33.791876-35.293737 34.133208h-233.471144c-19.319396-0.341332-34.918272-15.42821-35.293737-34.133208 0-18.841531 15.803675-34.133208 35.293737-34.133208h233.471144z m0 136.532833c19.285263 0.341332 34.884139 15.42821 35.259604 34.133208 0 18.841531-15.803675 34.133208-35.293737 34.133208h-233.471144c-19.490062 0-35.293737-15.291677-35.293737-34.133208 0.375465-18.704998 15.974341-33.791876 35.293737-34.133208h233.471144z m128.340863 99.668967V374.78638C1003.832735 318.60312 956.763041 273.06942 898.736587 273.06942h-307.540205l27.511365 68.266416h48.673955c19.455929 0 35.259604 15.291677 35.259604 34.133209s-15.803675 34.133208-35.259604 34.133208h-282.179232c-19.455929 0-35.259604-15.291677-35.259604-34.133208 0.341332-18.704998 15.940208-33.791876 35.259604-34.133209h18.329533l-28.19403-68.266416h-200.361932c-56.934191 0.341332-103.252955 44.543837-104.37935 99.668968v477.864914a99.9079 99.9079 0 0 0 29.252159 73.898396c19.660728 19.797261 46.762495 31.061219 75.127191 31.231886H898.736587a106.836942 106.836942 0 0 0 75.605056-30.992953c19.797261-19.797261 30.480955-46.557696 29.525226-74.137329z m-561.491274-191.82863c59.357649 32.836146 95.572983 94.275921 94.548986 160.426079v34.133208c0 18.841531-15.803675 34.133208-35.293737 34.133208H198.220756c-19.182863-0.341332-34.542807-15.53061-34.542807-34.133208v-34.133208c-1.023996-65.979491 34.815872-127.316867 93.798056-160.426079a112.298255 112.298255 0 0 1-23.961512-68.266416c-3.413321-42.461711 18.056467-83.182628 55.568863-105.43748a120.421958 120.421958 0 0 1 122.333418 0c37.546529 22.254852 58.982184 62.975769 55.568863 105.43748a109.021467 109.021467 0 0 1-24.678309 68.266416zM352.707656 546.135086c-25.804705 0.341332-46.557696 20.752991-46.557696 45.738498 0 18.568465 11.605291 35.293737 29.354559 42.325179 17.749268 7.031441 38.126794 3.003722 51.575278-10.239963 13.482617-13.209552 17.33967-33.006812 9.79623-50.073416-7.509306-17.066604-24.985508-28.023364-44.168371-27.750298z m-119.193163 273.065665h233.471144c3.413321-42.461711-18.056467-83.182628-55.568863-105.43748a120.421958 120.421958 0 0 0-122.333418 0c-37.546529 22.254852-58.982184 62.975769-55.568863 105.43748z" p-id="2765"></path></svg>
