<?xml version="1.0" standalone="no"?><!DOCTYPE svg PUBLIC "-//W3C//DTD SVG 1.1//EN" "http://www.w3.org/Graphics/SVG/1.1/DTD/svg11.dtd"><svg t="1567651373382" class="icon" viewBox="0 0 1024 1024" version="1.1" xmlns="http://www.w3.org/2000/svg" p-id="2176" xmlns:xlink="http://www.w3.org/1999/xlink" width="128" height="128"><defs><style type="text/css"></style></defs><path d="M514.811 684.397c3.013 0 6.075-0.178 9.169-0.534 29.596-3.435 54.736-23.456 64.002-51.042 0.697-2.074-0.308-4.276-2.349-5.184-2.025-0.907-4.454-0.129-5.605 1.717-0.113 0.178-11.874 18.564-57.652 24.541-6.852 0.891-13.526 1.361-19.843 1.361-32.074-0.016-46.362-11.712-46.491-11.825-1.62-1.393-4.082-1.425-5.734-0.065-1.668 1.344-2.058 3.694-0.924 5.491 13.964 21.917 39.023 35.54 65.427 35.54z" fill="#f37b1d" p-id="2177"></path><path d="M716.462 436.855c-31.474-82.501-113.020-141.449-208.965-141.449-95.541 0-176.795 58.446-208.56 140.412-1.571-1.862-3.435-3.467-5.248-5.087 17.981-99.883 106.815-175.839 213.922-175.839 106.589 0 195.148 75.195 213.712 174.397-1.83 2.381-3.515 4.876-4.86 7.565M760.977 409.819c-0.405 0-0.778 0.065-1.15 0.065-26.826-112.388-129.332-196.217-252.217-196.217-126.27 0-231.125 88.462-254.371 205.499-22.581 3.936-39.785 23.165-39.785 46.394v93.030c0 26.080 21.61 47.219 48.273 47.219 15.049 0 28.332-6.868 37.177-17.43 21.35 54.639 64.812 98.7 119.823 121.946 0.129-0.275 1.166-2.236 2.414-3.791 0.875-1.085 1.846-1.977 2.673-1.977 0.859 0 1.652 0.308 2.333 0.762-12.733-9.169-58.721-56.323-68.667-122.107-4.373-28.963 18.030-57.393 44.142-62.091 41.906-7.549 83.586-16.15 125.492-23.569 26.647-4.698 44.854-18.839 55.983-42.393 2.608-5.507 6.382-16.636 8.099-32.673 0.469-2.398 2.495-4.228 5.087-4.228 1.717 0 3.191 0.859 4.163 2.090l1.15-0.697c16.523 23.213 49.277 74.596 53.974 128.781 5.41 61.945 2.398 104.369-46.604 147.766-0.049 0.065-0.129 0.129-0.194 0.178-0.681 0.713-1.085 1.636-1.085 2.657 0 1.344 0.729 2.479 1.798 3.175 0.405 0.162 0.81 0.372 1.215 0.534 0.324 0.065 0.631 0.178 0.972 0.178 0.324 0 0.631-0.113 0.924-0.178 0.697-0.356 1.361-0.762 2.041-1.118 49.536-26.42 87.555-70.53 105.115-123.598 7.111 10.222 18.24 17.575 31.183 20.151-20.751 91.297-104.887 148.43-209.127 157.113-6.253-15.001-21.626-25.659-39.687-25.659-23.585 0-42.717 18.078-42.717 40.368 0 22.273 19.131 40.335 42.717 40.335 19.018 0 34.941-11.825 40.465-28.073 120.682-9.492 217.405-78.905 237.605-186.74 17.835-7.225 30.356-24.153 30.356-43.932v-94.131c0-26.307-22.192-47.641-49.569-47.641z" fill="#f37b1d" p-id="2178"></path><path d="M512 973.668c-254.565 0-461.668-207.103-461.668-461.668 0-254.565 207.103-461.668 461.668-461.668 254.565 0 461.668 207.103 461.668 461.668 0 254.565-207.103 461.668-461.668 461.668M512 34.133c-263.507 0-477.867 214.359-477.867 477.867s214.359 477.867 477.867 477.867c263.507 0 477.867-214.359 477.867-477.867 0-263.507-214.359-477.867-477.867-477.867z" fill="#f37b1d" p-id="2179"></path></svg>