<?xml version="1.0" standalone="no"?><!DOCTYPE svg PUBLIC "-//W3C//DTD SVG 1.1//EN" "http://www.w3.org/Graphics/SVG/1.1/DTD/svg11.dtd"><svg t="1581665714069" class="icon" viewBox="0 0 1024 1024" version="1.1" xmlns="http://www.w3.org/2000/svg" p-id="2782" xmlns:xlink="http://www.w3.org/1999/xlink" width="128" height="128"><defs><style type="text/css"></style></defs><path d="M170.666667 0h682.666666c94.254933 0 170.666667 76.411733 170.666667 170.666667v682.666666c0 94.254933-76.411733 170.666667-170.666667 170.666667H170.666667c-94.254933 0-170.666667-76.411733-170.666667-170.666667V170.666667C0 76.411733 76.411733 0 170.666667 0z m350.685866 682.666667h-326.314666c-23.5648 0-42.666667 19.101867-42.666667 42.666666s19.101867 42.666667 42.666667 42.666667h326.314666c17.570133 49.7152 64.981333 85.333333 120.712534 85.333333 55.735467 0 103.146667-35.618133 120.7168-85.333333h72.256c23.5648 0 42.666667-19.101867 42.666666-42.666667s-19.101867-42.666667-42.666666-42.666666h-72.256c-17.570133-49.7152-64.981333-85.333333-120.7168-85.333334-55.7312 0-103.1424 35.618133-120.712534 85.333334zM263.2832 256H192.5248c-23.5648 0-42.666667 19.101867-42.666667 42.666667s19.101867 42.666667 42.666667 42.666666h70.7584c17.570133 49.7152 64.981333 85.333333 120.7168 85.333334 55.7312 0 103.146667-35.618133 120.7168-85.333334h327.808c23.5648 0 42.666667-19.101867 42.666667-42.666666s-19.101867-42.666667-42.666667-42.666667h-327.808C487.146667 206.2848 439.735467 170.666667 384 170.666667c-55.7312 0-103.146667 35.618133-120.7168 85.333333z" fill="#e6e6e6" p-id="2783"></path></svg>