<?xml version="1.0" standalone="no"?><!DOCTYPE svg PUBLIC "-//W3C//DTD SVG 1.1//EN" "http://www.w3.org/Graphics/SVG/1.1/DTD/svg11.dtd"><svg t="1587891272307" class="icon" viewBox="0 0 1160 1024" version="1.1" xmlns="http://www.w3.org/2000/svg" p-id="2566" xmlns:xlink="http://www.w3.org/1999/xlink" width="226.5625" height="200"><defs><style type="text/css"></style></defs><path d="M573.2352 630.1696c181.8624 45.533867 314.231467 184.456533 314.231467 348.842667 0 15.223467-1.297067 30.242133-3.4816 44.987733H3.413333A302.8992 302.8992 0 0 1 0 978.944c0-164.317867 132.369067-303.240533 314.231467-348.7744v-17.749333C209.373867 561.152 136.533333 450.218667 136.533333 321.262933 136.533333 143.837867 274.090667 0 443.733333 0S750.933333 143.837867 750.933333 321.3312c0 129.024-72.840533 239.889067-177.698133 291.0208v17.8176zM819.2 477.866667h273.066667a68.266667 68.266667 0 0 1 0 136.533333h-273.066667a68.266667 68.266667 0 0 1 0-136.533333z m136.533333 204.8h136.533334a68.266667 68.266667 0 0 1 0 136.533333h-136.533334a68.266667 68.266667 0 0 1 0-136.533333z m-68.266666-409.6h204.8a68.266667 68.266667 0 0 1 0 136.533333h-204.8a68.266667 68.266667 0 0 1 0-136.533333z" p-id="2567" fill="#33475F"></path></svg>