<?xml version="1.0" standalone="no"?><!DOCTYPE svg PUBLIC "-//W3C//DTD SVG 1.1//EN" "http://www.w3.org/Graphics/SVG/1.1/DTD/svg11.dtd"><svg t="1587892848051" class="icon" viewBox="0 0 1024 1024" version="1.1" xmlns="http://www.w3.org/2000/svg" p-id="14629" xmlns:xlink="http://www.w3.org/1999/xlink" width="200" height="200"><defs><style type="text/css"></style></defs><path d="M798.7 307.2c0-150.303-106.097-278.528-250.768-303.048-144.665-24.52-285.353 61.845-332.575 204.063-47.216 142.218 12.867 298.665 142.116 369.715C233.57 621.17 71.096 728.12 57.33 990.04a32.543 32.543 0 0 0 8.755 24.115 30.889 30.889 0 0 0 23.214 9.79c16.384 0 29.926-13.087 30.833-29.809 15.759-323.128 287.063-372.966 361.42-379.791h17.521a295.823 295.823 0 0 0 211.968-89.887 310.953 310.953 0 0 0 87.721-217.313l-0.056 0.056zM499.005 550.687C367.821 550.687 261.5 441.63 261.5 307.2c0-134.487 106.378-243.487 237.512-243.487 131.184 0 237.568 109.005 237.568 243.487-0.118 134.37-106.384 243.313-237.568 243.487zM689.93 659.912h244.224c18.37 0 33.28 15.247 33.28 34.135 0 18.826-14.91 34.13-33.28 34.13H689.93a33.736 33.736 0 0 1-33.28-34.13c0-18.893 14.9-34.135 33.28-34.135z m277.504 170.665c0 18.831-14.91 34.135-33.28 34.135H556.687a33.736 33.736 0 0 1-33.28-34.135c0-18.888 14.905-34.13 33.28-34.13h377.4c18.381 0 33.28 15.242 33.28 34.13h0.057z m0 136.535c0 18.831-14.91 34.135-33.28 34.135H556.687a33.736 33.736 0 0 1-33.28-34.135c0-18.888 14.905-34.135 33.28-34.135h377.4c18.381 0 33.28 15.247 33.28 34.135h0.057z" fill="" p-id="14630"></path></svg>