<?xml version="1.0" standalone="no"?>
<!DOCTYPE svg PUBLIC "-//W3C//DTD SVG 1.1//EN" "http://www.w3.org/Graphics/SVG/1.1/DTD/svg11.dtd">
<svg t="1557719294859" class="icon" style="" viewBox="0 0 1024 1024" version="1.1" xmlns="http://www.w3.org/2000/svg" p-id="2450" xmlns:xlink="http://www.w3.org/1999/xlink" width="64" height="64">
  <defs><style type="text/css"></style></defs>
  <path d="M744 121a44 44 0 0 1 44 44v696a44 44 0 0 1-44 44H280a44 44 0 0 1-44-44V165a44 44 0 0 1 44-44h464m0-20H280a64 64 0 0 0-64 64v696a64 64 0 0 0 64 64h464a64 64 0 0 0 64-64V165a64 64 0 0 0-64-64z"  p-id="2451"></path>
  <path d="M746 151a12 12 0 0 1 12 12v700a12 12 0 0 1-12 12H278a12 12 0 0 1-12-12V163a12 12 0 0 1 12-12h468m0-20H278a32 32 0 0 0-32 32v700a32 32 0 0 0 32 32h468a32 32 0 0 0 32-32V163a32 32 0 0 0-32-32z" p-id="2452"></path>
  <path d="M362 815l300 0 0 20-300 0 0-20Z" p-id="2453"></path>
  <path d="M346.575765 281.287514l70.710678-70.710678 14.142135 14.142135-70.710678 70.710679-14.142135-14.142136Z"  p-id="2454"></path>
  <path d="M334.571753 378.279283l97.708015-97.708015 14.142136 14.142135-97.708015 97.708015-14.142136-14.142135Z"  p-id="2455"></path>
</svg>
