<?xml version="1.0" standalone="no"?><!DOCTYPE svg PUBLIC "-//W3C//DTD SVG 1.1//EN" "http://www.w3.org/Graphics/SVG/1.1/DTD/svg11.dtd"><svg t="1587891961466" class="icon" viewBox="0 0 1024 1024" version="1.1" xmlns="http://www.w3.org/2000/svg" p-id="7155" xmlns:xlink="http://www.w3.org/1999/xlink" width="200" height="200"><defs><style type="text/css"></style></defs><path d="M813.939563 436.491968L484.772147 845.399039l-240.171083-213.11514 40.200424-48.55788 192.591766 170.878248 289.046335-359.026809 47.605765 40.993853z m-672.85459 346.464176c0 97.618265 70.244951 177.199235 156.596519 177.199236h428.637016c86.351568 0 156.596518-79.342941 156.596519-177.199236V337.075262a172.808926 172.808926 0 0 0-127.953717-173.972622 487.72106 487.72106 0 0 1 4.337414 60.829588h30.9173v64.003306H233.783976v-64.003306h30.9173a485.314324 485.314324 0 0 1 4.337414-60.829588 172.808926 172.808926 0 0 0-127.980164 173.946175v445.880882z m803.58531-445.880882v445.854435c0 132.925874-97.856294 241.070303-218.431118 241.070303H297.681492C177.238907 1024 79.250375 915.882019 79.250375 782.929697V337.075262c0-127.742135 90.530296-232.263237 204.466759-240.276874C300.167571 46.204039 330.793946 0 388.344026 0h247.2855c57.55008 0 88.176455 46.204039 104.626892 96.798388 113.936464 7.934294 204.46676 112.534738 204.46676 240.276874z m-247.285501-113.063691c0-52.234103-15.339635-160.008265-61.808151-160.008265h-247.2855c-46.494964 0-61.728808 107.774162-61.834599 160.008265z" fill="#33475F" p-id="7156"></path></svg>