<?xml version="1.0" standalone="no"?><!DOCTYPE svg PUBLIC "-//W3C//DTD SVG 1.1//EN" "http://www.w3.org/Graphics/SVG/1.1/DTD/svg11.dtd"><svg t="1587891921908" class="icon" viewBox="0 0 1024 1024" version="1.1" xmlns="http://www.w3.org/2000/svg" p-id="6876" xmlns:xlink="http://www.w3.org/1999/xlink" width="200" height="200"><defs><style type="text/css"></style></defs><path d="M960 992l-768 32a64 64 0 0 1-64-64v-96H64a64 64 0 0 1-64-64V224a64 64 0 0 1 64-64h96V0l640 32v128h32a64 64 0 0 1 64 64v64h32a64 64 0 0 1 64 64l32 576a64 64 0 0 1-64 64zM736 96L224 64v96h512V96z m96 160a32 32 0 0 0-32-32H96a32 32 0 0 0-32 32v512a32 32 0 0 0 32 32h704a32 32 0 0 0 32-32V256z m96 128a32 32 0 0 0-32-32v448a64 64 0 0 1-64 64H192v64a32 32 0 0 0 32 32l704-32a32 32 0 0 0 32-32zM478.4 512c0.512 5.344 1.6 10.528 1.6 16a176 176 0 1 1-176-176c5.472 0 10.656 1.12 16 1.6V512h158.4zM544 384h224v64H544v-64z m0 128h224v64H544v-64z m0 128h224v64H544v-64zM352 480V353.6a110.816 110.816 0 0 1 16-1.6 112 112 0 0 1 112 112 110.816 110.816 0 0 1-1.6 16H352z" p-id="6877" fill=""></path></svg>