<?xml version="1.0" standalone="no"?>
<!DOCTYPE svg PUBLIC "-//W3C//DTD SVG 1.1//EN" "http://www.w3.org/Graphics/SVG/1.1/DTD/svg11.dtd">
<svg t="1557816332087" class="icon" style="" viewBox="0 0 1024 1024" version="1.1" xmlns="http://www.w3.org/2000/svg" p-id="2551" xmlns:xlink="http://www.w3.org/1999/xlink" width="64" height="64">
  <defs><style type="text/css"></style></defs>
  <path d="M838.29394531 251.62402318L185.70605469 251.62402318 116.4921875 429.60253881c0 52.73437525 42.84667994 95.58105443 98.87695313 95.58105443 52.73437525 0 98.87695313-42.84667994 98.87695312-95.58105443 0 52.73437525 42.84667994 95.58105443 98.87695313 95.58105443s98.87695313-42.84667994 98.87695312-95.58105443c0 52.73437525 42.84667994 95.58105443 98.87695313 95.58105443 52.73437525 0 98.87695313-42.84667994 98.87695312-95.58105443 0 52.73437525 42.84667994 95.58105443 98.87695313 95.58105443 52.73437525 0 98.87695313-42.84667994 98.87695312-95.58105443L838.29394531 251.62402318 838.29394531 251.62402318z" p-id="2552"></path>
  <path d="M874.54882787 251.62402318L874.54882787 251.62402318 874.54882787 251.62402318 874.54882787 251.62402318Z" p-id="2553"></path>
  <path d="M228.55273463 205.48144531l563.59863281 0c19.77539063 0 32.95898463-13.183594 32.95898463-32.95898463 0-19.77539063-13.183594-32.95898463-32.95898463-32.95898463L228.55273463 139.56347682c-19.77539063 0-32.95898463 13.183594-32.95898463 32.95898462C195.59375 192.29785131 208.777344 205.48144531 228.55273463 205.48144531L228.55273463 205.48144531z" p-id="2554"></path>
  <path d="M264.80761719 205.48144531" p-id="2555"></path>
  <path d="M762.4882815 884.43652318L258.21582057 884.43652318c-36.25488256 0-65.9179685-29.66308594-65.9179685-65.91796849l0-207.64160156c0-16.47949193 13.183594-29.66308594 29.66308594-29.66308594s29.66308594 13.183594 29.66308593 29.66308594l0 207.64160156c0 3.29589869 3.29589869 6.59179662 6.59179663 6.59179662l504.27246093 0c3.29589869 0 6.59179662-3.29589869 6.59179662-6.59179662l0-207.64160156c0-16.47949193 13.183594-29.66308594 29.66308594-29.66308594 16.47949193 0 29.66308594 13.183594 29.66308594 29.66308594l0 207.64160156C828.40625 858.06933594 798.74316406 884.43652318 762.4882815 884.43652318z" p-id="2556"></path>
</svg>
