<?xml version="1.0" standalone="no"?>
<!DOCTYPE svg PUBLIC "-//W3C//DTD SVG 1.1//EN" "http://www.w3.org/Graphics/SVG/1.1/DTD/svg11.dtd">
<svg t="1557846750256" class="icon" style="" viewBox="0 0 1024 1024" version="1.1" xmlns="http://www.w3.org/2000/svg" p-id="3364" xmlns:xlink="http://www.w3.org/1999/xlink" width="64" height="64">
  <defs><style type="text/css"></style></defs>
  <path d="M417.51552 436.66944l0 347.02848L257.35168 783.69792l0-186.85952L417.51552 436.66944 417.51552 436.66944zM417.51552 436.66944" p-id="3365"></path>
  <path d="M631.07584 463.36l0 320.3328L470.912 783.6928 470.912 436.66944l80.08192 106.77248L631.07584 463.36 631.07584 463.36zM631.07584 463.36" p-id="3366"></path>
  <path d="M844.63104 303.19104l0 480.50176-160.16384 0L684.4672 436.66944 844.63104 303.19104 844.63104 303.19104zM844.63104 303.19104" p-id="3367"></path>
  <path d="M284.05248 490.05056 257.35168 463.36l186.86464-186.85952 106.77248 106.7776 213.56032-186.86464-53.39648-53.38624 133.47328 0 0 133.47328L791.2448 223.11424l-240.256 213.5552L444.21632 329.88672 284.05248 490.05056 284.05248 490.05056zM284.05248 490.05056" p-id="3368"></path>
  <path d="M888.32 837.12l-660.48 0c-22.62016 0-46.08-23.45984-46.08-46.08l0-650.24-51.2 0 0 701.44c0 22.62016 23.45984 46.08 46.08 46.08l711.68 0L888.32 837.12z" p-id="3369"></path>
</svg>
