<?xml version="1.0" standalone="no"?><!DOCTYPE svg PUBLIC "-//W3C//DTD SVG 1.1//EN" "http://www.w3.org/Graphics/SVG/1.1/DTD/svg11.dtd"><svg t="1587892307664" class="icon" viewBox="0 0 1024 1024" version="1.1" xmlns="http://www.w3.org/2000/svg" p-id="13813" xmlns:xlink="http://www.w3.org/1999/xlink" width="200" height="200"><defs><style type="text/css"></style></defs><path d="M832 229.333h-32V211.84c0-66.773-54.4-121.173-121.173-121.173H345.173C278.4 90.667 224 145.067 224 211.84v17.493h-32A117.547 117.547 0 0 0 74.667 346.667V816c0 64.64 52.693 117.333 117.333 117.333h640c64.64 0 117.333-52.693 117.333-117.333V346.667c0-64.64-52.693-117.334-117.333-117.334zM288 211.84c0-31.573 25.6-57.173 57.173-57.173h333.654c31.573 0 57.173 25.6 57.173 57.173v17.493H288V211.84zM885.333 816A53.333 53.333 0 0 1 832 869.333H192A53.333 53.333 0 0 1 138.667 816V464h746.666v352z m0-416H138.667v-53.333A53.333 53.333 0 0 1 192 293.333h640a53.333 53.333 0 0 1 53.333 53.334V400z" p-id="13814" fill=""></path><path d="M618.667 621.333H544v-74.666a32 32 0 1 0-64 0v74.666h-74.667a32 32 0 0 0 0 64H480V760a32 32 0 0 0 64 0v-74.667h74.667a32 32 0 0 0 0-64z" p-id="13815" fill=""></path></svg>