<?xml version="1.0" standalone="no"?><!DOCTYPE svg PUBLIC "-//W3C//DTD SVG 1.1//EN" "http://www.w3.org/Graphics/SVG/1.1/DTD/svg11.dtd"><svg t="1581665497537" class="icon" viewBox="0 0 1024 1024" version="1.1" xmlns="http://www.w3.org/2000/svg" p-id="1960" xmlns:xlink="http://www.w3.org/1999/xlink" width="128" height="128"><defs><style type="text/css"></style></defs><path d="M1023.744 812.288 1024 708.416c0 0-68.544-13.632-69.76-18.24-1.28-5.056-2.624-10.112-4.096-14.912 8-14.848 46.656-47.616 46.656-47.616l-77.376-102.912c0 0-50.112 41.28-62.592 47.168-5.824-2.304-11.904-4.288-18.304-6.208-6.72-1.664-25.344-67.776-25.344-67.776l-104.128-0.896c0 0-11.264 64-28.032 68.352-5.696 1.6-11.328 3.776-16.96 6.4-12.48-6.08-62.592-48-62.592-48L524.096 628.48c0 0 38.784 39.04 41.344 52.096-1.6 4.096-3.2 8.32-4.608 12.544-16.64 5.824-64 15.232-64 15.232l0.256 103.872c0 0 54.976 11.456 65.472 20.608 2.176 6.016 4.672 11.904 7.36 17.536-12.672 15.872-46.656 42.304-46.656 42.304l79.744 103.872c0 0 62.656-40.576 72.96-42.88 5.12 2.176 10.304 4.288 15.616 6.144 9.408 3.328 16.128 63.808 16.128 63.808L811.776 1024c0 0 3.584-59.392 11.2-61.76 7.488-2.368 14.912-5.12 22.08-8.256 8.768 3.456 49.792 44.352 49.792 44.352l102.784-104.704c0 0-38.208-26.368-48.704-40.576 2.816-5.888 5.44-11.968 7.808-18.112C960.256 825.536 1023.744 812.288 1023.744 812.288L1023.744 812.288 1023.744 812.288 1023.744 812.288zM759.232 891.008c-72.448 0-131.2-58.752-131.2-131.2s58.752-131.136 131.2-131.136 131.136 58.688 131.136 131.136S831.616 891.008 759.232 891.008L759.232 891.008 759.232 891.008 759.232 891.008zM425.536 492.096c119.296 0 240.704-117.312 240.704-241.536S550.656 0 431.36 0C312.064 0 193.408 129.408 193.408 253.568 193.408 377.792 306.24 492.096 425.536 492.096L425.536 492.096 425.536 492.096 425.536 492.096zM478.016 543.808 239.424 543.808c-59.712 0-149.184 31.104-178.944 124.16-29.76 93.12-29.76 93.12-59.712 186.304-14.976 46.784 203.584 70.592 420.928 69.824 72.128-0.192 22.976-59.456 22.976-134.592C444.672 618.304 590.72 543.808 478.016 543.808L478.016 543.808 478.016 543.808 478.016 543.808zM478.016 543.808" p-id="1961" fill="#e6e6e6"></path></svg>