<?xml version="1.0" encoding="utf-8"?>
<svg version="1.1" id="图层_1" xmlns="http://www.w3.org/2000/svg" xmlns:xlink="http://www.w3.org/1999/xlink" x="0px" y="0px"
	 viewBox="0 0 197.2 103" style="enable-background:new 0 0 197.2 103;" xml:space="preserve">
<style type="text/css">
	.st0{fill:#00D232;}
	.st1{fill:#FFFFFF;}
	.st2{opacity:0.5;}
</style>
<g>
	<rect x="7.7" y="8.2" class="st0" width="181.2" height="84.4"/>
	<g>
		<g>
			<path class="st1" d="M76.2,58.2l-2.3,0.5c-0.2,0-0.3,0.3-0.3,0.5c0.4,1.7,0.7,3.7,0.9,5.3c0,0.2,0.2,0.4,0.5,0.3l2.4-0.6
				c0.2,0,0.3-0.2,0.3-0.4c-0.2-1.5-0.6-3.6-1.1-5.3C76.6,58.3,76.4,58.2,76.2,58.2z"/>
			<path class="st1" d="M72.9,45.2H84c0.2,0,0.4-0.2,0.4-0.4v-2.6c0-0.2-0.2-0.4-0.4-0.4H72.9c-0.2,0-0.4,0.2-0.4,0.4v2.6
				C72.6,45,72.7,45.2,72.9,45.2z"/>
			<path class="st1" d="M83.7,56.7V48c0-0.2-0.2-0.4-0.4-0.4h-9.6c-0.2,0-0.4,0.2-0.4,0.4v8.7c0,0.2,0.2,0.4,0.4,0.4h9.6
				C83.5,57.1,83.7,56.9,83.7,56.7z M80.3,54.1h-3.7v-3.5h3.7V54.1z"/>
			<path class="st1" d="M83.2,58.5L80.6,58c-0.2,0-0.4,0.1-0.5,0.3c-0.3,2-0.9,4.7-1.5,6.7c-2.3,0.4-4.5,0.7-6.2,1
				c-0.2,0-0.4,0.3-0.3,0.5l0.7,2.8c0,0.2,0.2,0.3,0.5,0.3c3.2-0.6,7.3-1.4,11.2-2.3c0.2,0,0.3-0.2,0.3-0.4l-0.2-2.5
				c0-0.2-0.2-0.4-0.5-0.4L82,64.4c0.5-1.5,1-3.3,1.5-5.1l0,0C83.7,58.8,83.4,58.6,83.2,58.5z"/>
			<path class="st1" d="M91.4,50.5h-2c0.1-0.5,0.2-1.1,0.3-1.6l-1.2-0.2v-2.6h10.4V49h3.4c0.2,0,0.4-0.2,0.4-0.4v-5.4
				c0-0.2-0.2-0.4-0.4-0.4h-5.6c-0.4-1-1-2-1.7-3c-0.1-0.1-0.3-0.2-0.4-0.1L92,40.5c-0.2,0.1-0.3,0.4-0.2,0.6
				c0.3,0.5,0.6,1.1,0.9,1.7h-7.5c-0.2,0-0.4,0.2-0.4,0.4v5.6c0,0.2,0.1,0.3,0.3,0.3h1.4c-0.5,3.4-1.3,6.4-2.8,8.7
				c-0.1,0.2-0.1,0.5,0.1,0.6l0.2,0.2v0c0.5,0.4,1,0.9,1.4,1.4c0.2,0.2,0.5,0.2,0.6,0c1.2-1.8,2-3.8,2.6-6.3h1.8
				c-0.2,1.6-0.4,3.2-0.7,4.5c-0.5-0.3-0.9-0.6-1.4-0.8L87,59.8c-0.1,0.2-0.1,0.4,0.1,0.5c0.6,0.4,1.2,0.9,1.8,1.4
				c-1.2,3-2.8,5.1-5.1,6.6c-0.2,0.1-0.2,0.4-0.1,0.6c0.7,0.6,1.6,1.6,2,2.2c4.8-3,7.5-9.3,8.3-20.3l-2-0.3H91.4z"/>
			<path class="st1" d="M100.9,64.1c0,1.3-0.1,2.2-0.1,2.7c-0.1,0.5-0.3,0.7-0.5,0.8c-0.2,0.1-0.5,0.1-0.8,0.1h-1.2
				c-0.3,0-0.6,0-0.7-0.1c-0.2-0.1-0.3-0.6-0.3-1.3V53h2.1v6.6c0,0.3-0.1,0.4-0.3,0.4c-0.2,0-0.9,0-1.7,0c0.3,0.8,0.7,1.9,0.8,2.8
				c0,0.1,0.1,0.2,0.2,0.2c1.4,0,2.3-0.1,3.1-0.6c0.8-0.5,1-1.3,1-2.7v-9.2c0-0.2-0.2-0.4-0.4-0.4h-7.5c-0.2,0-0.4,0.2-0.4,0.4v15.6
				c0,2.5,0.3,3.1,0.9,3.7c0.6,0.5,1.6,0.7,2.4,0.7h2.3c0.6,0,1.5-0.1,2-0.3c0.6-0.3,1.1-0.7,1.3-1.3c0.3-0.7,0.4-2.3,0.5-3.7
				c-0.8-0.3-1.8-0.7-2.5-1.2C101,63.8,100.9,63.9,100.9,64.1z"/>
			<path class="st1" d="M110.1,47.4c-0.2,0-0.4,0.2-0.4,0.4v10.9c0,0.2,0.2,0.4,0.4,0.4h21.8c0.2,0,0.4-0.2,0.4-0.4V47.8
				c0-0.2-0.2-0.4-0.4-0.4H110.1z M127.9,55.4h-14.1v-4.3h14.1V55.4z"/>
			<path class="st1" d="M107.3,44.9h27.5c0.2,0,0.4-0.2,0.4-0.4v-2.9c0-0.2-0.2-0.4-0.4-0.4h-27.5c-0.2,0-0.4,0.2-0.4,0.4v2.9
				C106.9,44.7,107,44.9,107.3,44.9z"/>
			<path class="st1" d="M135.8,66.2h-8.4c1-1.7,2.1-3.4,3-5.3c0.1-0.2,0-0.5-0.3-0.6l-3.8-0.9c-0.1,0-0.2,0-0.2,0.1
				c-0.6,2.1-1.7,4.5-2.9,6.6h-8.7l3.6,0.3c0.2-0.1,0.3-0.3,0.3-0.5c-0.4-1.6-1.8-4.7-2.7-6.5c0-0.1-0.1-0.1-0.2-0.1l-3.1,0.8
				c-0.2,0.1-0.4,0.3-0.3,0.5c0.8,1.9,1.6,3.9,1.9,5.4h-7.4c-0.2,0-0.4,0.2-0.4,0.4v2.9c0,0.2,0.2,0.4,0.4,0.4h29.3
				c0.2,0,0.4-0.2,0.4-0.4v-2.9C136.1,66.4,136,66.2,135.8,66.2z"/>
			<path class="st1" d="M167.6,42.9H161v-2.7c0-0.2-0.2-0.4-0.4-0.4h-3.2c-0.2,0-0.4,0.2-0.4,0.4v2.7h-7.7v-2.7
				c0-0.2-0.2-0.4-0.4-0.4h-3.2c-0.2,0-0.4,0.2-0.4,0.4v2.7h-6.7c-0.2,0-0.4,0.2-0.4,0.4v2.9c0,0.2,0.2,0.4,0.4,0.4h6.7v2.8
				c0,0.2,0.2,0.4,0.4,0.4h3.2c0.2,0,0.4-0.2,0.4-0.4v-2.8h7.7v2.8c0,0.2,0.2,0.4,0.4,0.4h3.2c0.2,0,0.4-0.2,0.4-0.4v-2.8h6.6
				c0.2,0,0.4-0.2,0.4-0.4v-2.9C168,43.1,167.8,42.9,167.6,42.9z"/>
			<path class="st1" d="M165,50.8h-23.3c-0.2,0-0.4,0.2-0.4,0.4v19.4c0,0.2,0.2,0.4,0.4,0.4h3.4v-1.4h16.3V71h3.6
				c0.2,0,0.4-0.2,0.4-0.4V51.2C165.4,51,165.2,50.8,165,50.8z M151.2,66h-5.7c-0.2,0-0.4-0.2-0.4-0.4v-3.7h6.1V66z M151.2,58.3
				h-6.1v-3.6c0-0.2,0.2-0.4,0.4-0.4h5.7V58.3z M161.3,65.6c0,0.2-0.2,0.4-0.4,0.4H155v-4.1h6.3V65.6z M161.3,58.3H155v-4h5.9
				c0.2,0,0.4,0.2,0.4,0.4V58.3z"/>
		</g>
		<g>
			<g>
				<path class="st1" d="M46.1,37.4c-3.7,0.1-7.4,1.2-10.4,3.5c-3.1,2.4-5,5.8-6.1,9.5c-0.3,1-0.5,2-0.7,3c-0.5,2.9-0.5,5.9,0.5,8.6
					c1.3,3.5,4.3,6.3,7.7,7.8s7.2,1.8,11,1.7c4.9-0.1,10.9-1.6,14-5.6c2.9-3.7,3.2-8.6,2.5-12.8c-0.7-4-2.1-6.9-4.1-9.6
					c-2.8-3.6-6.6-5.4-11.1-6C48.4,37.4,47.2,37.4,46.1,37.4z"/>
			</g>
			<path class="st0" d="M46.5,63.7c2.5,0,5-0.8,6.9-2.4c1.3-1.1,2.3-2.5,2.8-4.2c0.2-0.6,0.3-1.2,0.2-1.8c-0.2-4.6-9.8-4.3-9.8-4.3
				s-9.6-0.3-9.8,4.3c0,0.7,0.1,1.5,0.3,2.1c0.6,1.8,1.8,3.2,3.3,4.3c1.8,1.3,4,1.9,6.1,1.9C46.4,63.7,46.4,63.7,46.5,63.7z"/>
			<g class="st2">
				<g>
					<path class="st1" d="M46.9,64c3.3,0.1,6.3-1.8,8-4c-1.7-1.9-4.7-3.1-8.2-3.2C43,56.7,39.8,58,38.1,60
						C40,62.3,43.2,63.9,46.9,64z"/>
				</g>
			</g>
			<g>
				<path class="st1" d="M65.8,38.9h-7.1c-0.5,0-1-0.3-1.3-0.7c-0.3-0.5-0.3-1,0-1.5l4.4-7.6l2.5,1.5l-3.1,5.4h4.5V38.9z"/>
			</g>
			<path class="st0" d="M52.7,44.5c0,0-1.1-0.1-1.5,2.1c0,0-0.4,2.5,1.3,2.5c0.4,0,0.7-0.1,1-0.3c0.8-0.6,0.7-1.8,0.5-2.6
				C54,45.5,53.6,44.5,52.7,44.5z"/>
			<path class="st0" d="M40.4,44.5c0,0-1.1-0.1-1.5,2.1c0,0-0.4,2.5,1.3,2.5c0.4,0,0.7-0.1,1-0.3c0.8-0.6,0.7-1.8,0.5-2.6
				C41.6,45.5,41.3,44.5,40.4,44.5z"/>
		</g>
	</g>
</g>
</svg>
