<?xml version="1.0" standalone="no"?>
<!DOCTYPE svg PUBLIC "-//W3C//DTD SVG 1.1//EN" "http://www.w3.org/Graphics/SVG/1.1/DTD/svg11.dtd" >
<!--
2013-9-30: Created.
-->
<svg>
<metadata>
Created by iconfont
</metadata>
<defs>

<font id="iconfont" horiz-adv-x="1024" >
  <font-face
    font-family="iconfont"
    font-weight="500"
    font-stretch="normal"
    units-per-em="1024"
    ascent="896"
    descent="-128"
  />
    <missing-glyph />
    
    <glyph glyph-name="open" unicode="&#58967;" d="M475.281215 362.423589c-2.185782 0.579191-6.221702 0.86981-12.107759 0.86981l-25.086351 0 0-35.052331 25.352411 0c8.383948 0 14.337543 1.560542 17.860786 4.682649 3.52222 3.121084 5.285377 7.514137 5.285377 13.178137 0 4.102435-1.037632 7.614421-3.110851 10.535961C481.40161 359.55730800000003 478.670405 361.488287 475.281215 362.423589zM379.119085 360.51716899999997c-5.195326 3.278673-11.027148 4.91801-17.493419 4.91801-9.188266 0-17.09126-3.155876-23.714098-9.465582-6.622838-6.310729-9.934257-16.847713-9.934257-31.607882 0-11.819187 3.177366-21.128203 9.532097-27.929096 6.354731-6.800893 14.326287-10.201339 23.914666-10.201339 9.767458 0 17.804505 3.432169 24.115234 10.3006 6.310729 6.867408 9.465582 16.612353 9.465582 29.233811 0 7.981788-1.348718 14.94948-4.047176 20.904099S384.314411 357.23951999999997 379.119085 360.51716899999997zM695.529455 460.699869L531.43412 575.542454c1.050935 3.6399 1.626034 7.482415 1.626034 11.461029 0 22.73684-18.398022 41.164538-41.117466 41.164538-22.709211 0-41.11849-18.427698-41.11849-41.164538 0-4.657067 0.783853-9.127891 2.206248-13.301957L294.454824 461.642334c-39.885406-11.55415-69.049632-48.347125-69.049632-91.962481l0-76.588329c0-52.870138 42.866297-95.736435 95.736435-95.736435l344.649528 0c52.870138 0 95.736435 42.866297 95.736435 95.736435L761.527588 369.679853C761.527588 412.17469 733.841016 448.189951 695.529455 460.699869zM458.457038 563.128727c7.454786-10.462283 19.669992-17.289782 33.486672-17.289782 14.414291 0 27.081799 7.423063 34.421974 18.653849l141.596925-99.103112c-0.721431 0.016373-1.444908 0.027629-2.170432 0.027629l-344.649528 0c-0.328481 0-0.655939-0.00921-0.983397-0.01228L458.457038 563.128727zM402.365532 299.007257c-4.01443-7.849782-9.699919-13.792121-17.058514-17.827017-7.358595-4.036943-15.296381-6.054903-23.814382-6.054903-9.231245 0-17.482163 2.229784-24.75173 6.690376-7.269567 4.458545-12.775978 10.546194-16.522302 18.261922-3.746324 7.714705-5.618974 15.876596-5.618974 24.483624 0 16.277732 4.370541 29.020964 13.111622 38.229696 8.741082 9.209756 20.023032 13.814634 33.848922 13.814634 9.05319 0 17.214057-2.164293 24.483624-6.488785 7.269567-4.325515 12.81077-10.357905 16.623609-18.0941 3.812839-7.739265 5.719258-16.513092 5.719258-26.324552C408.385643 315.75366299999996 406.378939 306.85601599999995 402.365532 299.007257zM492.005109 325.330786c-5.307889-5.776563-14.896268-8.662287-28.765137-8.662287l-25.151843 0 0-39.870056-12.977569 0 0 98.067526 36.992519 0c6.510274 0 11.482519-0.313132 14.916734-0.937348 4.816702-0.802272 8.851599-2.330068 12.107759-4.582365 3.255137-2.252297 5.875824-5.408173 7.861038-9.465582 1.983167-4.058432 2.976798-8.519024 2.976798-13.379729C499.965407 338.163045 497.310951 331.10530300000005 492.005109 325.330786zM589.938582 276.798443l-73.183789 0 0 98.067526 70.90898 0 0-11.573593-57.930387 0 0-30.036084 54.251601 0 0-11.505032-54.251601 0 0-33.380248 60.205197 0L589.938582 276.798443zM684.996564 276.798443l-13.31219 0-51.509141 77.063143 0-77.063143-12.44238 0 0 98.067526 13.31219 0 51.509141-76.996628 0 76.996628 12.44238 0L684.996564 276.798443z"  horiz-adv-x="1024" />

    
    <glyph glyph-name="user" unicode="&#58908;" d="M639.587844 324.024217c50.645853 59.52346 104.044532 139.931555 104.044532 226.090907 0 155.69225-103.608583 282.240365-231.039853 282.240365-127.308468 0-231.166749-126.548115-231.166749-282.240365 0-86.159352 32.64094-143.930828 97.855279-224.590668 107.547477-158.751059-244.1081-170.379445-297.256057-283.614731-15.755578-33.636665-18.509427-59.712781-18.261775-89.784076 0-3.878517-0.370455-7.877789 1.566757-11.065541 1.937212-3.130444 4.938713-5.066632 8.192982-5.066632l876.887561 0c3.127374 0 6.190276 1.937212 8.065063 5.066632 1.937212 3.187752 1.563687 7.125623 1.563687 11.065541 0.62834 33.637688-3.87647 63.776525-12.693699 82.22148C890.886038 152.70430799999997 484.891318 143.827725 639.587844 324.024217z"  horiz-adv-x="1025" />

    
    <glyph glyph-name="msg" unicode="&#59235;" d="M639.892491 480.069881L383.935495 480.069881c-17.717453 0-31.994625 14.277171-31.994625 31.994625s14.277171 31.994625 31.994625 31.994625L639.892491 544.05913c17.717453 0 31.994625-14.277171 31.994625-31.994625S657.609945 480.069881 639.892491 480.069881zM579.17151 352.09138199999995L383.935495 352.09138199999995c-17.717453 0-31.994625 14.277171-31.994625 31.994625S366.390055 416.080632 383.935495 416.080632l195.236015 0c17.717453 0 31.994625-14.277171 31.994625-31.994625S596.888964 352.09138199999995 579.17151 352.09138199999995zM962.246934 448.075256c0 211.74937-200.912481 383.935495-447.924744 383.935495S66.225433 659.824626 66.225433 448.075256c0-116.453553 62.957164-226.026541 172.874181-300.680665 14.621199-9.976818 34.574836-6.192508 44.379641 8.428691 9.976818 14.621199 6.192508 34.574836-8.428691 44.379641-92.027549 62.441122-144.835881 152.74853-144.835881 247.700319 0 176.486477 172.186125 319.946246 383.935495 319.946246s383.935495-143.631782 383.935495-319.946246-172.186125-319.946246-383.935495-319.946246c-2.064169 0-3.612296-0.688056-5.504452-1.204099-15.137242 2.752226-30.446498-5.160423-35.778935-20.125651-6.192508-17.373425-46.44381-46.615824-94.091718-73.794053 17.373425 58.140769 9.116748 70.697799 3.440282 78.954477-6.70855 9.976818-17.889467 15.997312-29.930455 15.997312-17.717453 0-31.994625-14.277171-31.994625-31.994625 0-5.84848 1.548127-11.180917 4.300353-15.997312-3.268268-18.233496-17.201411-60.892995-33.026709-99.768184-4.988409-12.040988-2.064169-25.974131 7.396607-35.090879 6.020494-5.84848 14.105157-8.944734 22.18982-8.944734 4.300353 0 8.77272 0.860071 13.073072 2.752226 36.466991 16.341341 147.588107 69.149672 187.667395 125.570301C765.290778 67.92407200000002 962.246934 238.39005499999996 962.246934 448.075256z"  horiz-adv-x="1024" />

    
    <glyph glyph-name="statistics" unicode="&#58882;" d="M59.733333 384l85.333333 46.933333c4.266667 0 8.533333 0 12.8 0l349.866667-192c4.266667 0 8.533333 0 12.8 0l349.866667 192c4.266667 0 8.533333 0 12.8 0l85.333333-46.933333-443.733333-247.466667c-4.266667 0-8.533333 0-12.8 0L59.733333 384zM81.066667 593.066667l426.666667 234.666667c4.266667 0 8.533333 0 12.8 0l426.666667-234.666667c8.533333-4.266667 8.533333-17.066667 0-21.333333l-426.666667-234.666667c-4.266667 0-8.533333 0-12.8 0l-426.666667 234.666667C72.533333 580.266667 72.533333 588.8 81.066667 593.066667zM516.266667 38.39999999999998l349.866667 192c4.266667 0 8.533333 0 12.8 0l85.333333-46.933333-443.733333-247.466667c-4.266667 0-8.533333 0-12.8 0L59.733333 183.46666700000003l85.333333 46.933333c4.266667 0 8.533333 0 12.8 0l349.866667-192C507.733333 34.13333299999999 516.266667 34.13333299999999 516.266667 38.39999999999998z"  horiz-adv-x="1024" />

    
    <glyph glyph-name="sign-open" unicode="&#58907;" d="M230.659046 464.248184c-5.270782 0-10.541564 1.987084-14.575307 5.980584-8.169791 8.048834-8.250843 21.194588-0.202575 29.354996l14.575872 14.777881c8.048382 8.169791 21.225562 8.250956 29.354996 0.203705 8.169791-8.048834 8.250278-21.195719 0.202009-29.354996l-14.575872-14.779012C241.383401 466.316434 236.011558 464.248184 230.659046 464.248184L230.659046 464.248184zM288.962759 523.362648c-5.270782 0-10.541564 1.997032-14.596333 5.990645-8.148765 8.057651-8.22993 21.194588-0.182114 29.354883l14.596333 14.777994c8.088625 8.169678 21.205101 8.230948 29.374779 0.182679 8.14933-8.058782 8.230495-21.194023 0.182227-29.354996l-14.595315-14.777881C299.667219 525.419933 294.314706 523.362648 288.962759 523.362648L288.962759 523.362648zM347.286368 582.47779c-5.270782 0-10.541564 1.985389-14.57542 5.979454-8.169678 8.048382-8.250843 21.195153-0.202575 29.354431l14.575985 14.779125c8.048269 8.169678 21.225449 8.250843 29.354883 0.202462 8.169791-8.048269 8.250391-21.194023 0.202009-29.354883l-14.575872-14.777994C358.01061 584.544344 352.638767 582.47779 347.286368 582.47779L347.286368 582.47779zM405.589968 641.591802c-5.270782 0-10.541564 1.987084-14.575307 5.980584-8.169791 8.047138-8.250843 21.194023-0.20314 29.353301l14.576437 14.779012c8.047817 8.170356 21.224997 8.250843 29.354431 0.202575 8.169791-8.048269 8.250391-21.194023 0.202575-29.353301l-14.575307-14.779577C416.314776 643.659486 410.941916 641.591802 405.589968 641.591802L405.589968 641.591802zM463.913577 700.716213c-5.270782 0-10.541564 1.985954-14.57542 5.980584-8.169678 8.047251-8.250843 21.194136-0.202575 29.353301l14.575985 14.77969c8.048269 8.169113 21.225449 8.250278 29.354431 0.202009 8.170243-8.048947 8.250843-21.194136 0.202575-29.354996l-14.575985-14.777994C474.63782 702.783898 469.26609 700.716213 463.913577 700.716213L463.913577 700.716213zM911.081407 464.248184c-5.351947 0-10.723677 2.06825-14.776299 6.183159l-14.57542 14.779012c-8.049964 8.159278-7.969251 21.306163 0.200879 29.354996 8.130565 8.047251 21.30718 7.966086 29.354996-0.203705l14.575307-14.777881c8.050077-8.160408 7.968234-21.306163-0.204157-29.354996C921.62297 466.235269 916.352754 464.248184 911.081407 464.248184L911.081407 464.248184zM852.778824 523.362648c-5.351947 0-10.702764 2.057285-14.778446 6.173324l-14.59622 14.777881c-8.047817 8.160973-7.967216 21.296215 0.182114 29.354996 8.170243 8.048269 21.286267 7.986999 29.37591-0.182679l14.59622-14.777994c8.046686-8.160295 7.966086-21.297232-0.183131-29.354883C863.320387 525.35968 858.050171 523.362648 852.778824 523.362648L852.778824 523.362648zM794.455328 582.47779c-5.350817 0-10.723903 2.066554-14.778559 6.182593l-14.57542 14.777994c-8.047704 8.16086-7.967216 21.306615 0.203027 29.354883 8.128417 8.048382 21.305032 7.967216 29.354996-0.202462l14.57542-14.779125c8.046573-8.159278 7.966086-21.306049-0.20314-29.354431C804.997909 584.4631790000001 799.726562 582.47779 794.455328 582.47779L794.455328 582.47779zM736.152745 641.591802c-5.35093 0-10.723903 2.067685-14.778559 6.182593l-14.57542 14.779577c-8.049964 8.159278-7.969251 21.305032 0.200879 29.353301 8.130565 8.048269 21.30718 7.967782 29.353866-0.202575l14.576437-14.779012c8.048834-8.159278 7.96846-21.306163-0.200879-29.353301C746.695326 643.578886 741.423979 641.591802 736.152745 641.591802L736.152745 641.591802zM677.826988 700.716213c-5.351947 0-10.721529 2.067685-14.776299 6.182593l-14.57542 14.777994c-8.049964 8.16086-7.969364 21.306049 0.200879 29.354996 8.130565 8.048269 21.328206 7.967103 29.354996-0.202009l14.57542-14.77969c8.049964-8.159165 7.968234-21.306049-0.200992-29.353301C688.368551 702.702167 683.098222 700.716213 677.826988 700.716213L677.826988 700.716213zM1026.716204-127.99998700000003L115.066865-127.99998700000003C51.613214-127.99998700000003 0-76.99551399999996 0-14.272803999999951L0 349.98223399999995c0 62.733788 51.613214 113.779635 115.066865 113.779635l911.649339 0c63.432625 0 115.026509-51.045847 115.026509-113.779635l0-364.255039C1141.742713-76.99551399999996 1090.148829-127.99998700000003 1026.716204-127.99998700000003L1026.716204-127.99998700000003zM115.066865 422.243696c-40.545092 0-73.549144-32.415658-73.549144-72.261462l0-364.255039c0-39.813699 33.004051-72.210027 73.549144-72.210027l911.649339 0c40.524632 0 73.509352 32.396328 73.509352 72.210027L1100.225557 349.98223399999995c0 39.845803-32.984721 72.261462-73.509352 72.261462L115.066865 422.243696 115.066865 422.243696zM365.755356 166.39644999999996c0-54.85825-44.538705-97.388845-102.011094-97.388845-57.451928 0-102.010981 42.530481-102.010981 97.388845 0 55.120964 44.559053 96.821365 102.010981 96.821365C321.216651 263.217814 365.755356 221.25356999999997 365.755356 166.39644999999996zM194.736768 166.39644999999996c0-38.132398 31.624691-68.318606 69.2918-68.318606 37.665414 0 68.459345 30.186321 68.459345 68.318606 0 38.111485-30.793931 67.750108-68.459345 67.750108C226.078849 234.14655800000003 194.736768 204.50793499999997 194.736768 166.39644999999996zM484.064997 262.406386c48.390221 0 76.163735-23.88051 76.163735-65.562032 0-43.342023-27.773513-68.580302-76.163735-68.580302l-44.254965 0 0-57.878669-32.455902 0L407.35413 262.406386 484.064997 262.406386zM439.810032 157.33417799999995l42.896517 0c29.699441 0 46.444059 12.629144 46.444059 38.681113 0 25.238279-16.744618 37.299943-46.444059 37.299943l-42.896517 0L439.810032 157.33417799999995zM631.809104 233.31523400000003l0-51.836702 94.023982 0 0-29.070126-94.023982 0 0-52.951879 108.315549 0 0-29.071143L599.35422 70.38538300000005 599.35422 262.406386l137.467518 0 0-29.091152L631.809104 233.31523400000003zM921.664909 70.38538300000005l-102.537539 137.690441 0-137.690441-32.454884 0L786.672486 262.406386l31.90617 0 103.086254-137.974181L921.664909 262.406386l31.909448 0 0-192.021003L921.664909 70.38538300000005zM570.891817 724.241765c-47.356436 0-85.895113 38.528277-85.895113 85.8742C484.996704 857.471836 523.535382 896 570.891817 896s85.893983-38.528164 85.893983-85.884035C656.7858 762.770043 618.248253 724.241765 570.891817 724.241765L570.891817 724.241765zM570.891817 854.481713c-24.468903 0-44.376939-19.907923-44.376939-44.365748 0-24.459068 19.908036-44.355913 44.376939-44.355913 24.468338 0 44.376826 19.896845 44.376826 44.355913C615.268644 834.57379 595.360155 854.481713 570.891817 854.481713L570.891817 854.481713z"  horiz-adv-x="1142" />

    
    <glyph glyph-name="ai-list" unicode="&#58896;" d="M192 672c0-35.36-28.64-64-64-64L64 608C28.64 608 0 636.64 0 672L0 736c0 35.36 28.64 64 64 64l64 0c35.36 0 64-28.64 64-64L192 672zM192 352c0-35.328-28.64-64-64-64L64 288c-35.36 0-64 28.672-64 64l0 64c0 35.36 28.64 64 64 64l64 0c35.36 0 64-28.64 64-64L192 352zM192 32c0-35.328-28.64-64-64-64L64-32c-35.36 0-64 28.672-64 64l0 64c0 35.36 28.64 64 64 64l64 0c35.36 0 64-28.64 64-64L192 32zM1024 672c0-35.36-28.64-64-64-64L384 608c-35.36 0-64 28.64-64 64L320 736c0 35.36 28.64 64 64 64l576 0c35.36 0 64-28.64 64-64L1024 672zM1024 352c0-35.328-28.64-64-64-64L384 288c-35.36 0-64 28.672-64 64l0 64c0 35.36 28.64 64 64 64l576 0c35.36 0 64-28.64 64-64L1024 352zM1024 32c0-35.328-28.64-64-64-64L384-32c-35.36 0-64 28.672-64 64l0 64c0 35.36 28.64 64 64 64l576 0c35.36 0 64-28.64 64-64L1024 32z"  horiz-adv-x="1024" />

    
    <glyph glyph-name="classify" unicode="&#58913;" d="M377.403001 340.067418L151.563416 340.067418c-49.171909 0-89.174995-40.034808-89.174995-89.228207l0-225.786373c0-49.192376 40.003086-89.228207 89.174995-89.228207l225.839585 0c49.183166 0 89.198531 40.035832 89.198531 89.228207L466.601532 250.83921099999998C466.601532 300.03261 426.58719 340.067418 377.403001 340.067418zM377.403001 792.464949L151.563416 792.464949c-49.171909 0-89.174995-40.035832-89.174995-89.229231l0-225.786373c0-49.214888 40.003086-89.25072 89.174995-89.25072l225.839585 0c49.183166 0 89.198531 40.036855 89.198531 89.25072L466.601532 703.235718C466.601532 752.429117 426.58719 792.464949 377.403001 792.464949zM938.093956 667.517215L796.252461 809.390433c-30.444383 30.379914-83.425038 30.379914-113.825418 0L540.542568 667.517215c-31.377638-31.399127-31.377638-82.459037 0-113.814162L682.415786 411.808346c15.20019-15.21247 35.412534-23.588231 56.907081-23.609721 21.493523 0 41.718147 8.397251 56.939827 23.609721l141.831262 141.894707C969.448058 585.059202 969.448058 636.118088 938.093956 667.517215zM922.382113 569.413873L780.550851 427.519166c-22.046109-22.047132-60.409858-22.047132-82.414011 0L556.252365 569.413873c-22.717398 22.697955-22.707165 59.651588 0 82.393545L698.136839 793.680637c11.001565 11.001565 25.626657 17.055444 41.186028 17.055444 15.569604 0 30.205952-6.054903 41.227983-17.055444l141.820006-141.873218C945.080068 629.087974 945.080068 592.110805 922.382113 569.413873zM831.968917 340.067418L606.172311 340.067418c-49.192376 0-89.217974-40.034808-89.217974-89.228207l0-225.786373c0-49.192376 40.024575-89.228207 89.217974-89.228207l225.796606 0c49.182143 0 89.197508 40.035832 89.197508 89.228207L921.166425 250.83921099999998C921.166425 300.03261 881.152083 340.067418 831.968917 340.067418z"  horiz-adv-x="1024" />

    
    <glyph glyph-name="setting" unicode="&#58992;" d="M945.7664 494.4128a38.016 38.016 0 0 1-39.9616 28.8256 65.28 65.28 0 0 1-6.7328-0.8448 93.3632 93.3632 0 0 0-93.2608 93.2608c0 17.3568 5.0688 34.5344 14.6944 49.6896a38.4 38.4 0 0 1-6.5024 48.896c-49.3056 45.1072-105.856 77.8752-168.0384 97.3568a38.5024 38.5024 0 0 1-47.3088-22.8096C584.6784 752.512 550.6304 729.0368 512 729.0368s-72.6784 23.4752-86.7072 59.7504a38.4512 38.4512 0 0 1-47.3088 22.8096c-62.208-19.4816-118.7584-52.2496-168.0384-97.3568a38.4256 38.4256 0 0 1-6.5024-48.896 92.672 92.672 0 0 0 14.6944-49.6896c0-51.4304-42.8288-93.4656-93.6192-93.1072a104.576 104.576 0 0 1-6.3488 0.6912 37.9904 37.9904 0 0 1-39.9616-28.8256 451.0464 451.0464 0 0 1-14.208-110.3872c0-30.9248 3.3024-62.208 9.8048-93.0048a38.3232 38.3232 0 0 1 41.4976-30.2592l5.632 0.6912c1.3312 0.1792 2.6368 0.4352 3.968 0.4608a93.3632 93.3632 0 0 0 93.2608-93.2608c0-20.2752-6.8608-39.8336-19.7888-56.576a38.4512 38.4512 0 0 1 3.8144-51.2 449.664 449.664 0 0 1 176.0256-104.4992 38.3488 38.3488 0 0 1 47.2064 22.656c14.1312 36.0704 48.128 59.392 86.6048 59.392s72.4736-23.3216 86.6048-59.392a38.4 38.4 0 0 1 47.1808-22.656 449.664 449.664 0 0 1 176.0256 104.4992 38.4 38.4 0 0 1 3.8144 51.2 92.0064 92.0064 0 0 0-19.7888 56.576c0 37.5808 22.3488 71.3216 56.96 85.9392 12.7488 5.376 26.8288 8.6528 40.2688 6.8608l5.632-0.6912a38.2464 38.2464 0 0 1 41.4976 30.2592c6.5024 30.7968 9.8048 62.08 9.8048 93.0048a451.1488 451.1488 0 0 1-14.2592 110.3872z m-65.5104-156.7232a168.8576 168.8576 0 0 1-47.36-12.3648 169.7536 169.7536 0 0 1-103.8592-156.672c0-25.344 5.7088-49.9712 16.64-72.6272a372.736 372.736 0 0 0-93.056-55.552c-31.1296 46.336-83.1232 74.752-140.6464 74.752s-109.5168-28.416-140.6464-74.752a374.7328 374.7328 0 0 0-93.056 55.552c10.9568 22.6816 16.64 47.2832 16.64 72.6272 0 87.3984-66.2784 159.616-151.1936 169.0368a356.7872 356.7872 0 0 0 2.7904 109.2608c83.6096 10.6496 148.4544 82.2272 148.4544 168.704 0 20.7104-3.8656 41.1648-11.3152 60.4928a365.9264 365.9264 0 0 0 87.424 51.328C402.0992 680.8576 454.2208 652.2368 512 652.2368s109.9008 28.6208 140.9536 75.2384a366.7968 366.7968 0 0 0 87.424-51.328 167.936 167.936 0 0 1-11.3152-60.4928c0-86.4512 64.8448-158.0544 148.4544-168.704 3.7888-21.2992 5.7088-42.368 5.7088-62.9248-0.0256-15.36-1.024-30.8736-2.9696-46.336zM512 563.2c-25.5744 0-50.2784-5.2736-73.3952-15.6672a25.6 25.6 0 1 1 20.992-46.6944A128.1536 128.1536 0 0 0 640 384c0-70.5792-57.4208-128-128-128s-128 57.4208-128 128a25.6 25.6 0 1 1-51.2 0c0-98.816 80.4096-179.2 179.2-179.2s179.2 80.384 179.2 179.2-80.4096 179.2-179.2 179.2z"  horiz-adv-x="1024" />

    
    <glyph glyph-name="drop-down" unicode="&#58951;" d="M508.893248 133.06834100000003a65.039498 65.039498 0 0 0-46.420659 19.485839L97.125746 524.9959779999999c-25.143018 25.634319-24.752868 66.816849 0.881451 91.959868 25.648769 25.164693 66.809624 24.745643 91.959867-0.881451l318.933409-325.125238 318.933408 325.125238a65.025048 65.025048 0 0 0 92.841318-91.078417L555.313907 152.55417999999997a65.025048 65.025048 0 0 0-46.420659-19.485839z"  horiz-adv-x="1024" />

    
    <glyph glyph-name="edit" unicode="&#58892;" d="M767.991 177.66999999999996c0-78.862-63.982-142.845-142.844-142.845H212.485c-78.862 0-142.844 63.983-142.844 142.845V590.3299999999999c0 78.862 63.982 142.845 142.844 142.845h412.662c19.84 0 39.679-3.969 58.03-12.4 4.464-1.984 7.936-6.448 8.928-11.408 0.992-5.456-0.496-10.415-4.464-14.383l-24.303-24.304c-4.464-4.463-10.416-5.951-15.872-3.968-7.44 1.984-14.88 2.976-22.319 2.976H212.485c-43.647 0-79.358-35.712-79.358-79.359v-412.661c0-43.647 35.711-79.358 79.358-79.358h412.662c43.647 0 79.357 35.712 79.357 79.358v62.494c0 3.968 1.488 7.936 4.464 10.912l31.743 31.743c4.96 4.96 11.408 5.951 17.36 3.472 5.95-2.48 9.92-7.936 9.92-14.384v-94.235z m95.23 317.431L529.916 161.798H387.073V304.64300000000003l333.303 333.303L863.22 495.1zM567.612 266.947l-75.39 75.39-57.535-57.534v-27.776h47.615v-47.614h27.775l57.535 57.534z m144.332 299.08L538.349 392.433c-4.464-4.464-4.96-11.904-0.496-16.368 4.463-4.463 11.904-3.968 16.368 0.497l173.595 173.595c4.464 4.464 4.96 11.904 0.497 16.368-4.465 4.464-11.905 3.967-16.368-0.496z m183.02-39.183L752.12 669.69l45.631 45.63c18.352 18.353 49.102 18.353 67.454 0l75.39-75.39c18.352-18.351 18.352-49.101 0-67.453l-45.63-45.632z"  horiz-adv-x="1024" />

    
    <glyph glyph-name="refresh" unicode="&#58884;" d="M688 129.72799999999995a301.376 301.376 0 0 0-204.8-54.656c-3.392 0.32-6.72 0.896-10.176 1.344-6.528 0.896-13.056 1.728-19.392 3.008a220.672 220.672 0 0 0-11.648 2.688 261.376 261.376 0 0 0-18.496 4.8c-2.88 0.896-5.76 1.92-8.704 2.944a298.176 298.176 0 0 0-25.28 9.728 292.48 292.48 0 0 0-23.36 11.456l-1.024 0.512a311.744 311.744 0 0 0-89.152 74.432c-1.216 1.472-2.368 3.136-3.584 4.672a311.168 311.168 0 0 0-67.264 193.472h71.168a5.12 5.12 0 0 1 4.544 2.752 4.992 4.992 0 0 1-0.256 5.248L161.088 573.76a5.12 5.12 0 0 1-8.64 0L32.896 392.128c-1.024-1.472-1.216-3.52-0.256-5.248s2.688-2.752 4.544-2.752h71.168c0-86.016 26.496-165.696 71.424-231.552 0.576-0.96 0.96-1.92 1.536-2.816 4.672-6.72 9.856-12.992 14.848-19.392 1.856-2.368 3.648-4.864 5.568-7.232 7.36-9.088 15.168-17.472 23.232-25.856l2.24-2.304a397.888 397.888 0 0 1 122.752-84.8l7.424-3.328c8.512-3.584 17.344-6.72 26.112-9.728 4.16-1.408 8.256-2.88 12.48-4.16 7.744-2.304 15.616-4.224 23.552-6.144 5.312-1.28 10.496-2.624 15.936-3.648 2.176-0.512 4.288-1.152 6.528-1.472 7.488-1.344 14.976-2.112 22.528-3.008l8.064-1.152a397.12 397.12 0 0 1 271.104 71.936 49.408 49.408 0 0 1 11.904 68.224 48.064 48.064 0 0 1-67.584 12.032m227.776 254.4a409.856 409.856 0 0 1-71.104 231.04c-0.704 1.152-1.152 2.304-1.792 3.264a428.928 428.928 0 0 1-17.664 23.04l-2.112 2.752a399.68 399.68 0 0 1-150.656 114.624 161.28 161.28 0 0 0-4.8 2.24 502.976 502.976 0 0 1-28.352 10.56c-3.648 1.152-7.04 2.432-10.624 3.456a377.856 377.856 0 0 1-25.344 6.656c-4.672 1.088-9.408 2.304-14.208 3.264-2.368 0.448-4.544 1.152-6.912 1.6-6.4 1.152-12.8 1.6-19.2 2.432-4.352 0.576-8.768 1.28-13.184 1.728a413.568 413.568 0 0 1-32 1.6c-1.92 0-3.84 0.32-5.824 0.32a397.312 397.312 0 0 1-231.488-73.92 49.408 49.408 0 0 1-11.968-68.288 48.128 48.128 0 0 1 67.584-11.968 302.464 302.464 0 0 0 205.12 54.656l8.128-1.152c7.36-0.832 14.592-1.92 21.696-3.328 3.136-0.576 6.272-1.408 9.344-2.112 6.976-1.6 14.016-3.328 20.8-5.376l6.4-2.24c7.808-2.56 15.424-5.312 22.976-8.512l2.368-1.088c45.12-19.648 84.736-49.92 115.648-87.808l0.576-0.768a311.04 311.04 0 0 0 69.696-196.736h-71.104a5.12 5.12 0 0 1-4.288-8l119.616-181.568a5.12 5.12 0 0 1 8.576 0l119.488 181.568a5.12 5.12 0 1 1-4.288 8h-71.104v0.064z m0 0"  horiz-adv-x="1024" />

    
    <glyph glyph-name="baobiao" unicode="&#58972;" d="M852.153 732.996H736.204c-0.681 46.657-38.378 84.514-84.987 85.398-4.558 43.546-41.485 77.6-86.219 77.6H458.999c-44.732 0-81.66-34.054-86.218-77.6-46.605-0.888-84.307-38.744-84.987-85.398H171.846c-46.965 0-85.038-38.073-85.038-85.039v-690.912c0-46.966 38.073-85.039 85.038-85.039h680.307c46.964 0 85.038 38.073 85.038 85.039V647.957c0 46.966-38.074 85.039-85.038 85.039z m-504.392-59.999v58.721c0 0.429 0.012 0.854 0.032 1.278 0.669 14.127 12.371 25.415 26.661 25.415h27.854c16.567 0 29.999 13.431 29.999 30v20.89c0 14.719 11.975 26.693 26.692 26.693h105.999c14.719 0 26.693-11.975 26.693-26.693v-20.891c0-16.568 13.432-30 30-30h27.854c14.29 0 25.99-11.288 26.66-25.415 0.02-0.424 0.032-0.849 0.032-1.278V662.689c0-14.718-11.974-26.692-26.692-26.692H374.454c-14.719 0-26.693 11.974-26.693 26.692v10.308z m529.43-715.952c0-13.806-11.231-25.039-25.038-25.039H171.846c-13.807 0-25.039 11.233-25.039 25.039V647.957c0 13.807 11.232 25.04 25.039 25.04h115.916v-10.307c0-47.802 38.89-86.691 86.692-86.691h275.091c47.803 0 86.691 38.889 86.691 86.691v10.307h115.917c13.807 0 25.038-11.233 25.038-25.04v-690.912zM730.361 431.358L565.955 263.035l-71.392 95.748-0.092 0.124-0.269 0.36c-0.085 0.114-0.177 0.222-0.264 0.335-0.279 0.365-0.56 0.729-0.853 1.086-0.207 0.253-0.419 0.497-0.631 0.744-0.207 0.24-0.412 0.481-0.625 0.718-0.315 0.35-0.637 0.688-0.961 1.023-0.095 0.099-0.184 0.2-0.28 0.298l-0.102 0.098a38.767 38.767 0 0 1-1.207 1.161c-0.08 0.074-0.157 0.15-0.237 0.223a38.892 38.892 0 0 1-1.309 1.138c-0.075 0.063-0.148 0.127-0.223 0.189a38.894 38.894 0 0 1-1.293 1.014c-0.104 0.079-0.208 0.162-0.313 0.24a40.389 40.389 0 0 1-1.188 0.838c-0.16 0.11-0.318 0.224-0.479 0.331-0.334 0.221-0.674 0.431-1.013 0.642-0.234 0.146-0.466 0.295-0.703 0.436-0.261 0.154-0.526 0.299-0.79 0.446-0.321 0.181-0.642 0.364-0.967 0.535-0.177 0.093-0.357 0.179-0.535 0.269-0.415 0.211-0.831 0.42-1.251 0.615-0.092 0.042-0.185 0.08-0.277 0.122a40.55 40.55 0 0 1-1.534 0.664l-0.037 0.014a39.9 39.9 0 0 1-9.202 2.489c-0.086 0.013-0.172 0.021-0.258 0.033a39.903 39.903 0 0 1-1.614 0.195c-0.208 0.021-0.417 0.031-0.625 0.049-0.417 0.034-0.835 0.07-1.253 0.092-0.337 0.018-0.675 0.021-1.012 0.03-0.291 0.008-0.582 0.021-0.874 0.022-0.446 0.002-0.893-0.012-1.34-0.024-0.184-0.005-0.367-0.004-0.551-0.012-0.522-0.022-1.043-0.061-1.565-0.104-0.111-0.009-0.221-0.014-0.332-0.023-0.557-0.05-1.113-0.116-1.668-0.189-0.078-0.011-0.155-0.018-0.232-0.028-0.547-0.075-1.092-0.167-1.636-0.266-0.09-0.017-0.181-0.029-0.271-0.046-0.507-0.096-1.011-0.207-1.515-0.322-0.13-0.029-0.261-0.055-0.391-0.086-0.443-0.105-0.883-0.227-1.324-0.349-0.193-0.053-0.387-0.101-0.579-0.157-0.364-0.106-0.725-0.226-1.087-0.344-0.27-0.087-0.54-0.169-0.809-0.263-0.28-0.097-0.557-0.205-0.835-0.31-0.349-0.13-0.698-0.257-1.044-0.397-0.2-0.081-0.397-0.17-0.596-0.255-0.421-0.178-0.841-0.358-1.258-0.552-0.131-0.062-0.261-0.129-0.392-0.191-0.478-0.229-0.953-0.464-1.424-0.712l-0.253-0.14c-0.51-0.274-1.016-0.559-1.516-0.856-0.064-0.038-0.127-0.079-0.191-0.118-0.511-0.308-1.016-0.627-1.516-0.96-0.081-0.054-0.16-0.11-0.24-0.165-0.468-0.317-0.932-0.644-1.389-0.982l-0.113-0.08c-0.108-0.081-0.21-0.168-0.318-0.25-0.372-0.284-0.743-0.57-1.107-0.869-0.25-0.204-0.491-0.414-0.733-0.623s-0.486-0.415-0.725-0.631c-0.352-0.316-0.692-0.642-1.03-0.968-0.096-0.093-0.195-0.18-0.291-0.273l-0.297-0.293-0.14-0.139-196.675-194.334c-15.714-15.527-15.866-40.854-0.339-56.567 7.825-7.92 18.137-11.886 28.455-11.886 10.156 0 20.318 3.845 28.113 11.547l164.411 162.453 72.189-96.818c0.484-0.651 0.99-1.292 1.52-1.92 0.133-0.158 0.272-0.307 0.407-0.463 0.333-0.383 0.669-0.764 1.02-1.137 0.268-0.286 0.541-0.562 0.815-0.838 0.141-0.142 0.273-0.289 0.417-0.429 0.088-0.086 0.18-0.164 0.269-0.249a38.418 38.418 0 0 1 1.578-1.435c0.34-0.294 0.681-0.585 1.028-0.865 0.213-0.171 0.43-0.334 0.645-0.5 0.346-0.268 0.689-0.537 1.042-0.791 0.336-0.243 0.679-0.471 1.021-0.701 0.401-0.271 0.805-0.535 1.214-0.79a38.3 38.3 0 0 1 1.294-0.781c0.205-0.117 0.414-0.228 0.622-0.341 0.445-0.245 0.893-0.482 1.345-0.709a40.051 40.051 0 0 1 2.066-0.958c0.154-0.066 0.309-0.134 0.464-0.198 0.594-0.247 1.192-0.479 1.796-0.696l0.202-0.075c1.409-0.498 2.839-0.915 4.285-1.251 0.075-0.018 0.15-0.031 0.226-0.049a38.763 38.763 0 0 1 2.393-0.462c0.517-0.085 1.034-0.158 1.553-0.223 0.224-0.027 0.446-0.055 0.67-0.079 0.487-0.051 0.975-0.091 1.464-0.125 0.235-0.017 0.47-0.037 0.706-0.05 0.557-0.028 1.114-0.042 1.672-0.048 0.143-0.001 0.285-0.012 0.428-0.012 0.629 0 1.258 0.02 1.886 0.05l0.095 0.005c0.598 0.03 1.194 0.074 1.791 0.131l0.178 0.018a40.5 40.5 0 0 1 1.832 0.223l0.021 0.003a39.834 39.834 0 0 1 3.829 0.753l0.001 0.001a38.621 38.621 0 0 1 2.072 0.578c0.476 0.146 0.95 0.302 1.422 0.466 0.141 0.049 0.281 0.097 0.421 0.147a39.37 39.37 0 0 1 1.384 0.53c0.124 0.05 0.249 0.096 0.372 0.146a40.49 40.49 0 0 1 1.587 0.701c0.274 0.128 0.544 0.266 0.815 0.4 0.253 0.125 0.506 0.249 0.756 0.38 0.319 0.167 0.636 0.341 0.951 0.517a36.036 36.036 0 0 1 1.586 0.929c0.148 0.092 0.296 0.188 0.444 0.282a39.82 39.82 0 0 1 4.711 3.52c0.88 0.76 1.725 1.548 2.522 2.368l197.02 201.712c15.436 15.803 15.138 41.128-0.666 56.564-15.808 15.435-41.132 15.138-56.569-0.665z"  horiz-adv-x="1024" />

    
    <glyph glyph-name="qr-code" unicode="&#58880;" d="M62.996776 411.938306l423.162696 0L486.159472 835.099978 62.996776 835.099978 62.996776 411.938306zM168.788218 729.30956l211.580836 0 0-211.580836L168.788218 517.728724 168.788218 729.30956zM539.055193 835.099978l0-423.162696 423.162696 0L962.217888 835.099978 539.055193 835.099978zM856.426447 517.728724L644.845611 517.728724 644.845611 729.30956l211.580836 0L856.426447 517.728724zM221.682915 570.623421l105.790418 0L327.473333 676.414863 221.682915 676.414863 221.682915 570.623421zM62.996776-64.12011099999995l423.162696 0L486.159472 359.04258500000003 62.996776 359.04258500000003 62.996776-64.12011099999995zM168.788218 253.252167l211.580836 0 0-211.580836L168.788218 41.67133100000001 168.788218 253.252167zM803.531749 676.414863L697.740308 676.414863l0-105.790418 105.790418 0L803.530726 676.414863zM539.055193-64.12011099999995l105.790418 0L644.845611 41.67030799999998 539.055193 41.67030799999998 539.055193-64.12011099999995zM644.845611 253.252167l0-211.580836 105.790418 0L750.636029 253.252167 644.845611 253.252167zM856.426447 41.67030799999998L750.636029 41.67030799999998 750.636029-64.12011099999995l211.580836 0L962.216865 147.46174900000005 856.426447 147.46174900000005 856.426447 41.67030799999998zM856.426447 253.252167l105.790418 0L962.216865 359.04258500000003 856.426447 359.04258500000003 856.426447 253.252167zM539.055193 359.04258500000003l0-105.790418 105.790418 0L644.845611 359.04258500000003 539.055193 359.04258500000003zM221.682915 94.56602799999996l105.790418 0L327.473333 200.356446 221.682915 200.356446 221.682915 94.56602799999996z"  horiz-adv-x="1024" />

    
    <glyph glyph-name="home" unicode="&#58899;" d="M188.96 399.168H76.256L512 737.088l435.712-337.92H835.04L512 649.696 188.96 399.168z m520.992-39.488v-251.904H571.776v177.6H448.64v-177.6H310.464V359.67999999999995H236.96v-328.768h550.144V359.67999999999995h-77.152z m20.256 325.504v-68.704h99.936v-78.624h67.936V685.184H730.208z m-131.2-399.776H424.992v-182.72h174.016v182.72z"  horiz-adv-x="1024" />

    
    <glyph glyph-name="add" unicode="&#58988;" d="M199.766698 746.3254939999999c-28.658514 0-51.777987-23.239887-51.777987-51.777987V73.57290699999999c0-28.658514 23.239887-51.777987 51.777987-51.777987h621.697084c28.658514 0 51.777987 23.239887 51.777987 51.777987V694.667921c0 28.658514-23.239887 51.777987-51.777987 51.777987H199.766698z m-12.523048 68.515522h646.863594c59.484478 0 107.770461-48.285983 107.770461-107.650047v-646.14111c0-59.484478-48.285983-107.650047-107.770461-107.650047H187.24365c-59.484478 0-107.770461 48.165569-107.770461 107.650047V707.190969c0 59.484478 48.285983 107.650047 107.770461 107.650047z m0 0M666.250235 349.200376H356.06397c-19.0254 0-34.67921 15.65381-34.67921 34.67921s15.65381 34.67921 34.67921 34.67921h310.186265c19.0254 0 34.67921-15.65381 34.67921-34.67921 0-19.145814-15.65381-34.67921-34.67921-34.67921z m0 0M476.477893 228.78645300000005V538.972719c0 19.0254 15.65381 34.67921 34.67921 34.67921s34.67921-15.65381 34.679209-34.67921v-310.186266c0-19.0254-15.65381-34.67921-34.679209-34.679209-19.145814 0-34.67921 15.533396-34.67921 34.679209z m0 0"  horiz-adv-x="1024" />

    
    <glyph glyph-name="sort-msg" unicode="&#58984;" d="M849.523 61.471000000000004H174.477c-38.598 0-70 31.401-70 70V636.529c0 38.598 31.402 70 70 70h675.046c38.599 0 70-31.402 70-70V131.47000000000003c0-38.598-31.401-69.999-70-69.999zM174.477 646.529c-5.514 0-10-4.486-10-10V131.47000000000003c0-5.514 4.486-10 10-10h675.046c5.514 0 10 4.486 10 10V636.529c0 5.514-4.486 10-10 10H174.477zM512 259.28700000000003c-21.007 0-40.799 7.901-55.982 22.3l-326.767 249.6c-13.166 10.057-15.688 28.884-5.63 42.051 10.059 13.167 28.885 15.687 42.052 5.63l329.769-251.894 1.414-1.414a21.275 21.275 0 0 1 15.145-6.273 21.28 21.28 0 0 1 15.146 6.273l1.414 1.414L858.33 578.8679999999999c13.169 10.057 31.995 7.537 42.052-5.63 10.058-13.167 7.536-31.994-5.63-42.051l-326.767-249.6c-15.186-14.399-34.978-22.3-55.985-22.3z"  horiz-adv-x="1024" />

    
    <glyph glyph-name="location" unicode="&#59053;" d="M514.048 744.448c133.12-1.024 240.64-109.568 239.616-241.664 0-57.344-21.504-113.664-59.392-156.672L514.048 166.91200000000003l-184.32 181.248c-39.936 47.104-60.416 107.52-57.344 169.984 7.168 118.784 105.472 219.136 224.256 226.304h17.408m0 81.92c-7.168 0-15.36 0-22.528-1.024-161.792-10.24-291.84-142.336-301.056-303.104-5.12-88.064 25.6-168.96 78.848-230.4l220.16-216.064c7.168-7.168 15.36-10.24 24.576-10.24 9.216 0 18.432 3.072 25.6 10.24l214.016 214.016c50.176 56.32 80.896 131.072 81.92 212.992 0 178.176-143.36 322.56-321.536 323.584zM509.952-58.36800000000005c-148.48 1.024-399.36 32.768-398.336 150.528 0 50.176 47.104 89.088 138.24 115.712 21.504 6.144 44.032-6.144 51.2-27.648 6.144-21.504-6.144-44.032-27.648-51.2-51.2-14.336-71.68-30.72-77.824-36.864 17.408-24.576 133.12-66.56 316.416-67.584 182.272-1.024 300.032 40.96 316.416 64.512-6.144 7.168-29.696 25.6-88.064 40.96-21.504 6.144-34.816 28.672-28.672 50.176 6.144 21.504 28.672 34.816 50.176 28.672C861.184 181.24800000000005 911.36 141.312 911.36 88.06399999999996c-2.048-116.736-252.928-147.456-401.408-146.432z m318.464 144.384zM512 427.008c-62.464 0-113.664 52.224-113.664 114.688S450.56 655.36 513.024 655.36s113.664-52.224 113.664-114.688-51.2-113.664-114.688-113.664z m1.024 146.432c-17.408 0-32.768-14.336-32.768-31.744s14.336-32.768 31.744-32.768 32.768 14.336 32.768 31.744-14.336 32.768-31.744 32.768z"  horiz-adv-x="1024" />

    
    <glyph glyph-name="delete" unicode="&#58922;" d="M512 474.496l274.752 274.752 90.496-90.496L602.496 384l274.752-274.752-90.496-90.496L512 293.504l-274.752-274.752-90.496 90.496L421.504 384 146.752 658.752l90.496 90.496z"  horiz-adv-x="1024" />

    
    <glyph glyph-name="manage" unicode="&#58897;" d="M779 369.9H607.6c-31.5-0.1-57-25.5-57-57v-171.4c0.1-31.5 25.5-57 57-57H779c31.5 0.1 57 25.5 57 57V312.9c0 31.4-25.5 57-57 57m-342.5 0H265.1c-31.5-0.1-57-25.5-57-57v-171.4c0.1-31.5 25.5-57 57-57h171.4c31.5 0.1 57 25.5 57 57V312.9c-0.1 31.4-25.5 57-57 57M854.9 610L733.6 731.2c-22.3 22.2-58.3 22.2-80.6 0l-16.8-16.8L531.8 610c-10.7-10.6-16.7-25.2-16.7-40.2-0.1-15.2 5.9-29.7 16.7-40.4l16.8-16.8 87.7-87.7 16.8-16.8c22.3-22.2 58.3-22.2 80.6 0l104.5 104.5 16.8 16.8c22.1 22.3 22.1 58.3-0.1 80.6M436.5 712.4H265.1c-31.5-0.1-57-25.5-57-57V484c0.1-31.5 25.5-57 57-57h171.4c31.5 0.1 57 25.5 57 57V655.4c-0.1 31.5-25.5 57-57 57"  horiz-adv-x="1024" />

    
    <glyph glyph-name="bill" unicode="&#58895;" d="M759 85.5H265v563h125v-43h-82v-478h408v478h-82v43h125zM655 570.5H369v112h286v-112z m-243 43h200v27H412v-27zM391 249.5h243v-43H391zM593.7 458.5L569.1 483 512 425.9 454.9 483l-24.6-24.5 39.8-40H443v-35h52v-17h-52v-35h52v-52h35v52h51v35h-51v17h51v35h-27.1z"  horiz-adv-x="1024" />

    
    <glyph glyph-name="rest" unicode="&#58936;" d="M970.666667 215.46666632999995L938.666667 334.93333333V192.00000033000003c0-36.266667-17.066667-66.133333-44.8-85.333334l17.066666 4.266667c44.8 10.666667 72.533333 57.6 59.733334 104.533333zM192 85.33333332999996c-8.533333 0-17.066667 2.133333-25.6 4.266667l23.466667-83.2c12.8-44.8 59.733333-72.533333 104.533333-59.733334L817.066667 85.33333332999996H192zM426.666667 358.40000033c-21.333333 0-36.266667-6.4-49.066667-21.333334-12.8-14.933333-19.2-34.133333-21.333333-55.466666h140.8c-2.133333 51.2-27.733333 76.8-70.4 76.8zM866.133333 462.93333333l-151.466666 166.4L531.2 832.00000033c-4.266667 6.4-12.8 8.533333-19.2 8.533333s-14.933333-2.133333-19.2-8.533333l-183.466667-202.666667-151.466666-166.4C128 448.00000033 106.666667 418.13333333 106.666667 384.00000033v-192c0-46.933333 38.4-85.333333 85.333333-85.333334h640c46.933333 0 85.333333 38.4 85.333333 85.333334v192c0 34.133333-21.333333 64-51.2 78.933333z m-106.666666-36.266667z m-435.2 187.733334l183.466666 202.666666c2.133333 2.133333 4.266667 2.133333 4.266667 2.133334s2.133333 0 4.266667-2.133334l183.466666-202.666666L832 469.33333333H194.133333l130.133334 145.066667z m4.266666-260.266667c-10.666667 2.133333-19.2 4.266667-29.866666 4.266667-19.2 0-34.133333-8.533333-44.8-25.6-10.666667-14.933333-14.933333-32-14.933334-53.333334v-98.133333h-14.933333v185.6h14.933333v-38.4c4.266667 12.8 12.8 21.333333 21.333334 29.866667 10.666667 8.533333 23.466667 14.933333 38.4 14.933333 12.8 0 21.333333-2.133333 29.866666-4.266667v-14.933333z m46.933334-142.933333c12.8-14.933333 29.866667-21.333333 51.2-21.333334 19.2 0 34.133333 4.266667 44.8 14.933334 10.666667 8.533333 17.066667 21.333333 21.333333 36.266666h14.933333c-4.266667-17.066667-12.8-32-25.6-44.8-14.933333-12.8-34.133333-19.2-57.6-19.2-25.6 0-46.933333 8.533333-61.866666 27.733334-14.933333 17.066667-23.466667 42.666667-23.466667 70.4 0 27.733333 6.4 49.066667 21.333333 68.266666 14.933333 19.2 36.266667 29.866667 61.866667 29.866667 29.866667 0 51.2-10.666667 64-29.866667 12.8-17.066667 19.2-40.533333 21.333333-72.533333h-155.733333c4.266667-27.733333 10.666667-46.933333 23.466667-59.733333z m236.8-36.266667c-46.933333 0-72.533333 21.333333-76.8 61.866667h14.933333c2.133333-19.2 8.533333-32 19.2-38.4 10.666667-6.4 23.466667-10.666667 42.666667-10.666667 38.4 0 57.6 14.933333 57.6 42.666667 0 12.8-6.4 21.333333-19.2 27.733333-6.4 4.266667-21.333333 8.533333-42.666667 14.933333-21.333333 6.4-36.266667 10.666667-44.8 17.066667-12.8 8.533333-21.333333 19.2-21.333333 34.133333 0 14.933333 6.4 25.6 19.2 34.133334 12.8 8.533333 27.733333 12.8 46.933333 12.8 42.666667 0 66.133333-19.2 72.533333-57.6h-12.8c-2.133333 14.933333-8.533333 25.6-17.066666 32-10.666667 8.533333-23.466667 12.8-42.666667 12.8-14.933333 0-27.733333-4.266667-36.266667-10.666667-10.666667-6.4-14.933333-14.933333-14.933333-25.6s6.4-19.2 17.066667-25.6c8.533333-4.266667 21.333333-8.533333 40.533333-12.8 23.466667-6.4 38.4-10.666667 49.066667-17.066667 14.933333-8.533333 23.466667-21.333333 23.466666-36.266666-2.133333-36.266667-25.6-55.466667-74.666666-55.466667z m200.533333 179.2h-51.2v-134.4c0-10.666667 2.133333-17.066667 4.266667-21.333333 2.133333-4.266667 8.533333-6.4 19.2-6.4h23.466666v-12.8h-23.466666c-14.933333 0-23.466667 4.266667-29.866667 10.666666-4.266667 6.4-6.4 14.933333-6.4 29.866667v134.4h-42.666667v12.8h42.666667V405.33333333h12.8v-38.4h51.2v-12.8z"  horiz-adv-x="1024" />

    


  </font>
</defs>
</svg>
